<?xml version="1.0" encoding="UTF-8"?>
<svg id="Calque_1" data-name="Calque 1" xmlns="http://www.w3.org/2000/svg" xmlns:xlink="http://www.w3.org/1999/xlink" viewBox="0 0 1289.37 276.68">
  <defs>
    <style>
      .cls-1 {
        fill: none;
      }

      .cls-2 {
        fill: #0d2647;
      }

      .cls-3 {
        clip-path: url(#clippath);
      }
    </style>
    <clipPath id="clippath">
      <rect class="cls-1" width="1289.37" height="276.68"/>
    </clipPath>
  </defs>
  <g class="cls-3">
    <path class="cls-2" d="M277.55,127.87v138.76c0,2.88-2.34,5.21-5.21,5.21h-49.25c-1.62,0-3.14-.61-4.27-1.77-1.14-1.13-1.77-2.66-1.77-4.25v-.63l.22-122.54c.24-4.04.17-8.1-.22-12.07-.24-2.62-.66-5.3-1.2-8.01l-.07-.29c-1.79-9.95-5.43-19.37-10.8-28.01l-.33-.5c-2.31-3.66-4.93-7.14-7.77-10.37-.39-.48-.76-.92-1.14-1.35-4.99-5.71-11.02-10.58-17.85-14.44-9.91-5.55-21.08-8.77-33.21-9.6l-.33-.02c-1.94-.13-3.9-.2-5.89-.2-37.25,0-68.17,23.89-76.96,59.44-3.6,12.17-4.13,24.61-1.55,37.01,1.59,8.79,4.63,17.17,8.99,24.96.68,1.24,1.4,2.42,2.16,3.62,2.27,3.62,4.91,7.11,7.79,10.37.39.5.76.93,1.13,1.35,4.98,5.72,10.91,10.54,17.68,14.36l.31.18c11.3,6.35,24.94,9.73,39.28,9.73,9.08,0,17.87-1.37,26.16-4.12,2.66-.87,5.52-.2,7.46,1.74,6.96,6.92,24.59,24.55,24.59,24.55.17.15.31.33.44.5l9.14,9.14c1.35,1.33,1.94,3.16,1.66,5.04-.28,1.88-1.4,3.45-3.07,4.32-1.2.63-2.4,1.27-3.65,1.88-4.32,2.1-8.73,3.97-13.27,5.63-.68.24-1.35.48-2.03.72l-.65.22c-3.21,1.09-6.13,1.96-9,2.72-11.92,3.18-24.42,4.85-37.18,4.93-42.49-.3-81.46-18.54-106.97-50.08l-.17-.23c-8.55-10.65-15.45-22.57-20.47-35.46-11.96-28.56-13.53-59.85-4.54-90.49l.26-.92C15.94,63.39,39.1,34.35,71.19,17.11c.79-.42,1.59-.83,2.38-1.25l.37-.2c.7-.35,1.42-.72,2.14-1.06,1.2-.59,2.42-1.16,3.65-1.7C125.22-7.85,178.49-3.31,218.76,24.72c16.44,11.44,29.88,26.27,39.95,44.06,5.48,9.68,12.99,22.93,16.63,39.25,1.46,6.57,2.2,13.24,2.2,19.84"/>
    <path class="cls-2" d="M363.27,146.62c15.55-49.32,90.39-53.88,113.18-6.85.71,1.46,2.51,2.05,4.14,2.04,8.74,0,38.96-.57,38.96-.57,19.71,0-18.7-92.59-116.47-81.75-124.72,15.39-124.67,200.42-.02,215.78,52.18,8.79,119.3-24.16,121.65-81.57.47-3.16-1.96-6.01-5.16-6.01l-38.78.04c-2.43,0-4.23,1.78-5.05,3.96-26.07,69.46-136.35,37.65-112.45-45.07"/>
    <path class="cls-2" d="M744.56,90.23l-.92-.91c-20.09-19.98-48.39-30.98-79.7-30.98s-59.79,10.99-80.1,30.96c-20.19,19.87-31.31,47.6-31.31,78.07s11.13,58.24,31.31,78.1c20.28,19.97,48.73,30.96,80.1,30.96,21.72,0,42.4-4.94,59.34-15.09,26.63-15.96,38.96-38.73,43.77-50.22,1.44-3.44-1.1-7.22-4.83-7.22l-41.45.02c-3.5,0-6.86,1.72-9,4.62-3.54,4.81-7.77,8.75-12.76,11.84-9.12,5.63-20.73,8.4-35.07,8.4-12.88,0-24.19-2.87-33.6-8.52-9.53-5.72-16.64-13.99-21.15-24.58l-3.4-8.01h163.57c2.87,0,5.21-2.35,5.21-5.22v-15.08c0-30.04-10.66-57.37-30-77.14M710.64,141.19l-93.13.06h-10.03l5.06-8.66c10.02-17.15,28.27-26.6,51.4-26.6s41.32,9.64,51.6,26.45l5.35,8.74h-10.25Z"/>
    <path class="cls-2" d="M1008.35,162.7v104.54c0,2.88-2.34,5.21-5.21,5.22h-39.84c-2.88,0-5.21-2.33-5.21-5.21v-104.55c0-36.39-19.01-57.26-52.16-57.26s-52.15,20.87-52.15,57.26v104.62c0,2.88-2.34,5.21-5.21,5.21l-39.85-.07c-2.88,0-5.21-2.34-5.21-5.21v-104.55c0-32.89,9.82-59.91,28.39-78.1,17.85-17.46,43.46-26.69,74.03-26.69s56.27,9.17,74.03,26.56c18.85,18.37,28.4,44.69,28.4,78.23"/>
    <path class="cls-2" d="M1211.63,204.86c0,21.38-8.48,39.5-24.51,52.39-15.61,12.56-37.34,19.18-62.85,19.18-23.8,0-44.56-5.91-60.03-17.11-15.43-11.16-24.74-26.73-26.89-44.99v-7.15c0-2.88,2.34-5.21,5.22-5.21h32.45c1.36,0,2.66.53,3.63,1.47,5.9,5.72,5.89,26.35,45.61,26.13,22.21-.12,36.54-8.3,36.54-21.13,0-11.41-11.63-14.09-38.17-17.5l-1.04-.16-.16-.02c-19.05-2.43-37.4-5.26-52.35-13.19-18.99-10.07-28.21-25.91-28.21-48.43,0-20.85,7.98-38.64,23.1-51.43,14.92-12.67,35.64-19.36,59.91-19.36,22.55,0,42.28,5.9,57.06,17.09,14.3,10.79,21.58,26.24,23.51,43.52.21,1.82.82,5.72-.07,8.64-.67,2.18-2.7,3.67-4.98,3.67h-30.79c-1.67-.02-3.15-1.09-3.87-2.6-2.53-5.29-13.17-23.45-40.48-23.45-10.51,0-19.16,2.28-25.01,6.59-5.02,3.68-7.58,8.45-7.58,14.18,0,11.62,13.14,13.88,36.33,16.91l2.63.34c19.09,2.43,37.47,5.26,52.56,13.21,9.44,4.99,16.6,11.55,21.3,19.52,4.73,8.03,7.12,17.75,7.12,28.91"/>
    <path class="cls-2" d="M1289.37,267.24c0,2.88-2.34,5.21-5.21,5.21h-36.71c-2.88,0-5.21-2.33-5.21-5.21V66.96c0-2.88,2.34-5.21,5.22-5.21h36.7c2.88,0,5.21,2.34,5.21,5.21v200.28Z"/>
  </g>
</svg>