<?xml version="1.0" encoding="UTF-8" standalone="no"?>
<!-- Created with Inkscape (http://www.inkscape.org/) -->

<svg
   width="383.94mm"
   height="116.1mm"
   viewBox="0 0 383.94 116.1"
   version="1.1"
   id="svg1"
   xml:space="preserve"
   sodipodi:docname="ACENSI.svg"
   inkscape:version="1.4 (e7c3feb100, 2024-10-09)"
   xmlns:inkscape="http://www.inkscape.org/namespaces/inkscape"
   xmlns:sodipodi="http://sodipodi.sourceforge.net/DTD/sodipodi-0.dtd"
   xmlns="http://www.w3.org/2000/svg"
   xmlns:svg="http://www.w3.org/2000/svg"><sodipodi:namedview
     id="namedview1"
     pagecolor="#ffffff"
     bordercolor="#000000"
     borderopacity="0.25"
     inkscape:showpageshadow="2"
     inkscape:pageopacity="0.0"
     inkscape:pagecheckerboard="0"
     inkscape:deskcolor="#d1d1d1"
     inkscape:document-units="mm"
     showguides="true"
     inkscape:zoom="0.48996914"
     inkscape:cx="720.45354"
     inkscape:cy="336.75591"
     inkscape:window-width="1290"
     inkscape:window-height="761"
     inkscape:window-x="11"
     inkscape:window-y="34"
     inkscape:window-maximized="0"
     inkscape:current-layer="layer1" /><defs
     id="defs1"><clipPath
       id="clip0_729_11724"><rect
         width="1289.37"
         height="276.67999"
         fill="#ffffff"
         id="rect8"
         x="0"
         y="0" /></clipPath><mask
       id="mask0_729_11724"
       maskUnits="userSpaceOnUse"
       x="0"
       y="0"
       width="1290"
       height="277"><path
         d="M 1289.37,0 H 0 v 276.68 h 1289.37 z"
         fill="#ffffff"
         id="path1" /></mask></defs><g
     inkscape:label="Layer 1"
     inkscape:groupmode="layer"
     id="layer1"
     transform="translate(176.04001,-16.199999)"><rect
       style="opacity:1;fill:#0d2647;fill-opacity:1;stroke-width:0.264583"
       id="rect1"
       width="383.94"
       height="116.1"
       x="-176.04001"
       y="16.199999" /><g
       clip-path="url(#clip0_729_11724)"
       id="g8"
       transform="matrix(0.26458333,0,0,0.26458333,-156.63333,34.13022)"><mask
         id="mask2"
         maskUnits="userSpaceOnUse"
         x="0"
         y="0"
         width="1290"
         height="277"><path
           d="M 1289.37,0 H 0 v 276.68 h 1289.37 z"
           fill="#ffffff"
           id="path2" /></mask><g
         mask="url(#mask0_729_11724)"
         id="g7"><path
           d="m 277.55,127.87 v 138.76 c 0,2.88 -2.34,5.21 -5.21,5.21 h -49.25 c -1.62,0 -3.14,-0.61 -4.27,-1.77 -1.14,-1.13 -1.77,-2.66 -1.77,-4.25 v -0.63 l 0.22,-122.54 c 0.24,-4.04 0.17,-8.1 -0.22,-12.07 -0.24,-2.62 -0.66,-5.3 -1.2,-8.01 l -0.07,-0.29 c -1.79,-9.95 -5.43,-19.37 -10.8,-28.0103 l -0.33,-0.5 c -2.31,-3.66 -4.93,-7.14 -7.77,-10.37 -0.39,-0.48 -0.76,-0.9199 -1.14,-1.3499 -4.99,-5.71 -11.02,-10.5801 -17.85,-14.4401 -9.91,-5.55 -21.08,-8.77 -33.21,-9.6 l -0.33,-0.02 c -1.94,-0.13 -3.9,-0.2 -5.89,-0.2 -37.25,0 -68.1699,23.8901 -76.9599,59.4403 -3.6,12.17 -4.13,24.61 -1.55,37.01 1.59,8.79 4.63,17.17 8.99,24.96 0.68,1.24 1.4,2.42 2.16,3.62 2.27,3.62 4.91,7.11 7.79,10.37 0.39,0.5 0.76,0.93 1.13,1.35 4.98,5.72 10.91,10.54 17.68,14.36 l 0.31,0.18 c 11.2999,6.35 24.9399,9.73 39.2799,9.73 9.08,0 17.87,-1.37 26.16,-4.12 2.66,-0.87 5.52,-0.2 7.46,1.74 6.96,6.92 24.59,24.55 24.59,24.55 0.17,0.15 0.31,0.33 0.44,0.5 l 9.14,9.14 c 1.35,1.33 1.94,3.16 1.66,5.04 -0.28,1.88 -1.4,3.45 -3.07,4.32 -1.2,0.63 -2.4,1.27 -3.65,1.88 -4.32,2.1 -8.73,3.97 -13.27,5.63 -0.68,0.24 -1.35,0.48 -2.03,0.72 l -0.65,0.22 c -3.21,1.09 -6.13,1.96 -9,2.72 -11.92,3.18 -24.42,4.85 -37.18,4.93 C 95.4001,275.78 56.4301,257.54 30.9201,226 l -0.17,-0.23 c -8.55,-10.65 -15.45,-22.57 -20.47,-35.46 C -1.67994,161.75 -3.24994,130.46 5.74006,99.8197 l 0.26,-0.92 c 9.94004,-35.5099 33.10004,-64.55 65.19004,-81.79 0.79,-0.42 1.59,-0.83 2.38,-1.25 l 0.37,-0.2 c 0.7,-0.35 1.42,-0.72 2.14,-1.06 1.2,-0.59 2.42,-1.16 3.65,-1.7 45.4899,-20.74996 98.7599,-16.20996 139.0299,11.82 16.44,11.44 29.88,26.27 39.95,44.06 5.48,9.68 12.99,22.93 16.63,39.2503 1.46,6.57 2.2,13.24 2.2,19.84"
           fill="#ffffff"
           id="path3" /><path
           d="m 363.27,146.62 c 15.55,-49.32 90.39,-53.88 113.18,-6.85 0.71,1.46 2.51,2.05 4.14,2.04 8.74,0 38.96,-0.57 38.96,-0.57 19.71,0 -18.7,-92.59 -116.47,-81.75 -124.72,15.39 -124.67,200.42 -0.02,215.78 52.18,8.79 119.3,-24.16 121.65,-81.57 0.47,-3.16 -1.96,-6.01 -5.16,-6.01 l -38.78,0.04 c -2.43,0 -4.23,1.78 -5.05,3.96 -26.07,69.46 -136.35,37.65 -112.45,-45.07 z"
           fill="#ffffff"
           id="path4" /><path
           d="m 744.56,90.2298 -0.92,-0.91 c -20.09,-19.98 -48.39,-30.98 -79.7,-30.98 -31.31,0 -59.79,10.99 -80.1,30.96 -20.19,19.8702 -31.31,47.6002 -31.31,78.0702 0,30.47 11.13,58.24 31.31,78.1 20.28,19.97 48.73,30.96 80.1,30.96 21.72,0 42.4,-4.94 59.34,-15.09 26.63,-15.96 38.96,-38.73 43.77,-50.22 1.44,-3.44 -1.1,-7.22 -4.83,-7.22 l -41.45,0.02 c -3.5,0 -6.86,1.72 -9,4.62 -3.54,4.81 -7.77,8.75 -12.76,11.84 -9.12,5.63 -20.73,8.4 -35.07,8.4 -12.88,0 -24.19,-2.87 -33.6,-8.52 -9.53,-5.72 -16.64,-13.99 -21.15,-24.58 l -3.4,-8.01 h 163.57 c 2.87,0 5.21,-2.35 5.21,-5.22 v -15.08 c 0,-30.04 -10.66,-57.37 -30,-77.1402 m -33.93,50.9602 -93.13,0.06 h -10.03 l 5.06,-8.66 c 10.02,-17.15 28.27,-26.6 51.4,-26.6 23.13,0 41.32,9.64 51.6,26.45 l 5.35,8.74 h -10.25 z"
           fill="#ffffff"
           id="path5" /><path
           d="m 1008.35,162.7 v 104.54 c 0,2.88 -2.34,5.21 -5.21,5.22 H 963.3 c -2.88,0 -5.21,-2.33 -5.21,-5.21 V 162.7 c 0,-36.39 -19.01,-57.26 -52.16,-57.26 -33.15,0 -52.15,20.87 -52.15,57.26 v 104.62 c 0,2.88 -2.34,5.21 -5.21,5.21 l -39.85,-0.07 c -2.88,0 -5.21,-2.34 -5.21,-5.21 V 162.7 c 0,-32.89 9.82,-59.91 28.39,-78.0998 17.85,-17.46 43.46,-26.69 74.03,-26.69 30.57,0 56.27,9.17 74.03,26.56 18.85,18.3698 28.4,44.6898 28.4,78.2298"
           fill="#ffffff"
           id="path6" /><path
           d="m 1211.63,204.86 c 0,21.38 -8.48,39.5 -24.51,52.39 -15.61,12.56 -37.34,19.18 -62.85,19.18 -23.8,0 -44.56,-5.91 -60.03,-17.11 -15.43,-11.16 -24.74,-26.73 -26.89,-44.99 v -7.15 c 0,-2.88 2.34,-5.21 5.22,-5.21 h 32.45 c 1.36,0 2.66,0.53 3.63,1.47 5.9,5.72 5.89,26.35 45.61,26.13 22.21,-0.12 36.54,-8.3 36.54,-21.13 0,-11.41 -11.63,-14.09 -38.17,-17.5 l -1.04,-0.16 -0.16,-0.02 c -19.05,-2.43 -37.4,-5.26 -52.35,-13.19 -18.99,-10.07 -28.21,-25.91 -28.21,-48.43 0,-20.85 7.98,-38.6404 23.1,-51.4304 14.92,-12.67 35.64,-19.36 59.91,-19.36 22.55,0 42.28,5.9 57.06,17.09 14.3,10.79 21.58,26.2404 23.51,43.5204 0.21,1.82 0.82,5.72 -0.07,8.64 -0.67,2.18 -2.7,3.67 -4.98,3.67 h -30.79 c -1.67,-0.02 -3.15,-1.09 -3.87,-2.6 -2.53,-5.29 -13.17,-23.45 -40.48,-23.45 -10.51,0 -19.16,2.28 -25.01,6.59 -5.02,3.68 -7.58,8.45 -7.58,14.18 0,11.62 13.14,13.88 36.33,16.91 l 2.63,0.34 c 19.09,2.43 37.47,5.26 52.56,13.21 9.44,4.99 16.6,11.55 21.3,19.52 4.73,8.03 7.12,17.75 7.12,28.91"
           fill="#ffffff"
           id="path7" /><path
           d="m 1289.37,267.24 c 0,2.88 -2.34,5.21 -5.21,5.21 h -36.71 c -2.88,0 -5.21,-2.33 -5.21,-5.21 V 66.96 c 0,-2.88 2.34,-5.21 5.22,-5.21 h 36.7 c 2.88,0 5.21,2.34 5.21,5.21 z"
           fill="#ffffff"
           id="path8" /></g></g></g></svg>
