<?xml version="1.0" encoding="utf-8"?>
<!-- Generator: Adobe Illustrator 27.9.0, SVG Export Plug-In . SVG Version: 6.00 Build 0)  -->
<svg version="1.1" id="Calque_1" xmlns="http://www.w3.org/2000/svg" xmlns:xlink="http://www.w3.org/1999/xlink" x="0px" y="0px"
	 viewBox="0 0 1177.57 344.53" style="enable-background:new 0 0 1177.57 344.53;" xml:space="preserve">
<style type="text/css">
	.st0{fill:#11113F;}
	.st1{fill:#6F52FF;}
	.st2{fill:#FFD500;}
</style>
<path class="st0" d="M304.86,299.83v43.88H300v-43.88H304.86z"/>
<path class="st0" d="M342.33,343.71h-4.86v-39.56h-14.58v-4.32h34.03v4.32h-14.58v39.56H342.33z"/>
<path class="st0" d="M367.11,340.61c0-2.16,1.76-3.92,3.92-3.92s3.92,1.76,3.92,3.92s-1.76,3.92-3.92,3.92
	C368.87,344.52,367.11,342.77,367.11,340.61z"/>
<path class="st0" d="M456.3,343.31l-0.2,0.4h-4.79l-4.52-9.92h-23.83l-4.59,9.92h-4.66l-0.2-0.4l20.39-43.48h2.16L456.3,343.31z
	 M444.75,329.47l-9.86-21.67l-9.99,21.67H444.75z"/>
<path class="st0" d="M514.23,322.45c0,6.01-2.23,11.48-6.08,15.46c-3.92,4.05-9.38,6.62-15.8,6.62c-12.76,0-22.41-9.52-22.41-22.75
	s10.06-22.75,22.55-22.75c7.02,0,13.5,3.17,17.62,8.51v0.4l-3.24,2.7h-0.4c-3.24-4.46-8.44-7.16-14.04-7.16
	c-9.72,0-17.55,7.43-17.55,18.3s7.43,18.3,17.35,18.3c5.2,0,9.59-2.09,12.63-5.27c2.7-2.84,4.32-6.55,4.32-10.4h-16.81v-4.32h21.33
	l0.4,0.4C514.23,321.23,514.23,321.7,514.23,322.45z"/>
<path class="st0" d="M538.4,299.83v43.88h-4.86v-43.88H538.4z"/>
<path class="st0" d="M588.56,343.71h-26.67v-43.88h4.86v39.56h21.81V343.71z"/>
<path class="st0" d="M611.52,304.15v15.26h19.38v4.32h-19.38v15.66h24.31v4.32h-29.17v-43.88h29.17v4.32L611.52,304.15
	L611.52,304.15z"/>
<path class="st0" d="M651.69,335.75v-0.41l3.11-2.7h0.41c3.51,4.79,8.71,7.43,13.37,7.43c6.48,0,10.4-3.24,10.4-7.56
	c0-6.48-6.89-7.36-14.31-10.19c-4.52-1.76-10.67-4.25-10.67-11.54c0-6.82,5.81-11.75,14.38-11.75c6.62,0,11.48,2.84,14.45,6.75v0.4
	l-2.97,2.77h-0.4c-2.57-3.17-6.08-5.47-11.07-5.47c-5.47,0-9.38,2.77-9.38,6.82c0,4.39,3.85,5.94,8.51,7.7
	c7.36,2.77,16.47,4.59,16.47,14.31c0,7.43-6.21,12.22-15.12,12.22C662.09,344.52,655.54,341.42,651.69,335.75z"/>
<path class="st0" d="M700.97,340.61c0-2.16,1.76-3.92,3.92-3.92s3.92,1.76,3.92,3.92s-1.76,3.92-3.92,3.92
	S700.97,342.77,700.97,340.61z"/>
<path class="st0" d="M759.78,304.15v15.26h19.38v4.32h-19.38v15.66h24.31v4.32h-29.17v-43.88h29.17v4.32L759.78,304.15
	L759.78,304.15z"/>
<path class="st0" d="M839.58,299.83v43.88h-2.16L809,309.48v34.23h-4.73v-43.88h2.16l28.42,34.9v-34.9L839.58,299.83L839.58,299.83z
	"/>
<path class="st0" d="M858.76,335.75v-0.41l3.11-2.7h0.41c3.51,4.79,8.71,7.43,13.37,7.43c6.48,0,10.4-3.24,10.4-7.56
	c0-6.48-6.89-7.36-14.31-10.19c-4.52-1.76-10.67-4.25-10.67-11.54c0-6.82,5.81-11.75,14.38-11.75c6.62,0,11.48,2.84,14.45,6.75v0.4
	l-2.97,2.77h-0.4c-2.57-3.17-6.08-5.47-11.07-5.47c-5.47,0-9.38,2.77-9.38,6.82c0,4.39,3.85,5.94,8.51,7.7
	c7.36,2.77,16.47,4.59,16.47,14.31c0,7.43-6.21,12.22-15.12,12.22C869.15,344.52,862.61,341.42,858.76,335.75z"/>
<path class="st0" d="M915.88,304.15v15.26h19.38v4.32h-19.38v15.66h24.31v4.32h-29.17v-43.88h29.17v4.32L915.88,304.15
	L915.88,304.15z"/>
<path class="st0" d="M1000.47,343.71l-3.31-31.66l-14.65,31.66h-2.16l-14.38-31.6l-3.31,31.6h-4.52l4.79-43.88h2.16l16.34,36.19
	l16.61-36.19h2.16l4.79,43.88H1000.47z"/>
<path class="st0" d="M1058.2,331.56c0,7.29-6.41,12.15-16.07,12.15h-15.87v-43.88h15.19c9.65,0,14.72,3.98,14.72,11.68
	c0,4.46-2.63,7.56-5.87,9.25C1055.09,322.51,1058.2,326.43,1058.2,331.56z M1031.12,304.15v14.99h10.94c5.87,0,9.18-2.7,9.18-7.49
	c0-4.93-3.17-7.49-9.18-7.49h-10.94V304.15z M1053.27,331.29c0-4.93-3.92-8.17-9.86-8.17h-12.29v16.27h11.01
	C1049.42,339.39,1053.27,336.62,1053.27,331.29z"/>
<path class="st0" d="M1105.26,343.71h-26.67v-43.88h4.86v39.56h21.81V343.71z"/>
<path class="st0" d="M1128.21,304.15v15.26h19.38v4.32h-19.38v15.66h24.31v4.32h-29.17v-43.88h29.17v4.32L1128.21,304.15
	L1128.21,304.15z"/>
<path class="st0" d="M1169.73,340.61c0-2.16,1.76-3.92,3.92-3.92s3.92,1.76,3.92,3.92s-1.76,3.92-3.92,3.92
	C1171.49,344.52,1169.73,342.77,1169.73,340.61z"/>
<path class="st0" d="M509.36,219.83c-4.28,7.49-10.12,13.1-17.53,16.84c-7.41,3.74-15.39,5.61-23.95,5.61
	c-7.79,0-14.97-1.37-21.54-4.13c-6.57-2.75-12.26-6.68-17.07-11.8s-8.55-11.31-11.23-18.56c-2.67-7.26-4.01-15.47-4.01-24.63
	c0-9.17,1.49-17.53,4.47-25.09s7.14-14.02,12.49-19.36c5.35-5.35,11.69-9.51,19.02-12.49c7.33-2.98,15.35-4.47,24.06-4.47
	c6.42,0,12.6,0.84,18.56,2.52c5.96,1.68,11.3,3.97,16.04,6.87l0.92-7.1h25.66V196v44h-25.66L509.36,219.83z M493.55,149.71
	c-4.89-1.37-10.01-2.06-15.35-2.06c-11,0-19.52,3.28-25.55,9.85c-6.03,6.57-9.05,15.12-9.05,25.67c0,10.08,2.83,18.1,8.48,24.06
	c5.65,5.96,13.06,8.94,22.23,8.94c4.89,0,9.36-0.95,13.41-2.86s7.52-4.51,10.43-7.79c2.9-3.28,5.12-7.18,6.65-11.69
	s2.21-9.28,2.06-14.32v-24.75C502.87,152.77,498.44,151.09,493.55,149.71z"/>
<path class="st0" d="M567.31,124.05h28.41v14.21c4.43-4.74,9.82-8.71,16.16-11.92c6.34-3.21,13.86-4.81,22.57-4.81
	c14.05,0,24.71,4.28,31.97,12.83c7.26,8.55,10.88,20.62,10.88,36.21V240h-28.64v-65.31c0-18.18-7.72-27.27-23.15-27.27
	c-5.81,0-11.3,1.41-16.5,4.24c-5.19,2.83-9.62,6.45-13.29,10.88V240h-28.41L567.31,124.05L567.31,124.05z"/>
<path class="st0" d="M844.74,124.05h28.41v14.21c4.28-4.74,9.43-8.71,15.47-11.92c6.03-3.21,13.18-4.81,21.43-4.81
	c16.96,0,28.72,6.72,35.29,20.17c4.89-5.5,10.73-10.24,17.53-14.21s14.93-5.96,24.4-5.96c13.29,0,23.34,4.05,30.13,12.15
	c6.8,8.1,10.2,19.78,10.2,35.06V240h-28.42v-67.14c0-8.71-1.76-15.12-5.27-19.25c-3.51-4.12-8.71-6.19-15.58-6.19
	c-5.5,0-10.69,1.41-15.58,4.24s-9.09,6.23-12.6,10.2c0.15,1.07,0.23,2.18,0.23,3.32v3.55V240h-28.42v-67.14
	c0-8.71-1.76-15.12-5.27-19.25c-3.51-4.12-8.71-6.19-15.58-6.19c-5.5,0-10.66,1.45-15.47,4.35s-8.98,6.49-12.49,10.77V240h-28.41
	V124.05z"/>
<path class="st0" d="M1151.67,219.83c-4.28,7.49-10.12,13.1-17.53,16.84s-15.39,5.61-23.95,5.61c-7.79,0-14.97-1.37-21.54-4.13
	c-6.57-2.75-12.26-6.68-17.07-11.8c-4.81-5.12-8.55-11.31-11.23-18.56c-2.67-7.26-4.01-15.47-4.01-24.63
	c0-9.17,1.49-17.53,4.47-25.09s7.14-14.02,12.49-19.36c5.35-5.35,11.69-9.51,19.02-12.49c7.33-2.98,15.35-4.47,24.06-4.47
	c6.42,0,12.6,0.84,18.56,2.52c5.96,1.68,11.3,3.97,16.04,6.87l0.92-7.1h25.66V196v44h-25.66L1151.67,219.83z M1135.86,149.71
	c-4.89-1.37-10.01-2.06-15.35-2.06c-11,0-19.52,3.28-25.55,9.85s-9.05,15.12-9.05,25.67c0,10.08,2.83,18.1,8.48,24.06
	s13.06,8.94,22.23,8.94c4.89,0,9.36-0.95,13.41-2.86c4.05-1.91,7.52-4.51,10.43-7.79c2.9-3.28,5.12-7.18,6.65-11.69
	s2.21-9.28,2.06-14.32v-24.75C1145.18,152.77,1140.75,151.09,1135.86,149.71z"/>
<path class="st0" d="M703.46,157.96c3.06-7.33,7.37-13.71,12.95-19.13c5.58-5.42,12.22-9.62,19.94-12.6
	c7.71-2.98,16.16-4.47,25.32-4.47c9.32,0,17.84,1.49,25.55,4.47c7.71,2.98,14.36,7.18,19.94,12.6s9.89,11.8,12.95,19.13
	c3.06,7.33,4.58,15.35,4.58,24.06s-1.53,16.73-4.58,24.06c-3.06,7.33-7.37,13.71-12.95,19.13s-12.22,9.62-19.94,12.6
	c-7.72,2.98-16.23,4.47-25.55,4.47c-9.17,0-17.61-1.49-25.32-4.47c-7.72-2.98-14.36-7.18-19.94-12.6s-9.89-11.8-12.95-19.13
	c-3.06-7.33-4.58-15.35-4.58-24.06C698.87,173.32,700.4,165.3,703.46,157.96z M730.95,195.89c1.68,4.2,3.97,7.79,6.87,10.77
	c2.9,2.98,6.42,5.27,10.54,6.87c4.13,1.6,8.56,2.41,13.29,2.41c5.04,0,9.59-0.84,13.63-2.52c4.05-1.68,7.56-4.01,10.54-6.99
	c2.98-2.98,5.27-6.57,6.87-10.77c1.6-4.2,2.41-8.82,2.41-13.86c0-10.08-3.05-18.22-9.17-24.4c-6.11-6.19-14.13-9.28-24.06-9.28
	c-4.89,0-9.4,0.8-13.52,2.41c-4.12,1.6-7.68,3.9-10.65,6.87c-2.98,2.98-5.27,6.57-6.87,10.77c-1.6,4.2-2.41,8.82-2.41,13.86
	C728.43,187.07,729.27,191.69,730.95,195.89z"/>
<polygon class="st0" points="410.48,240 360.8,178.13 397.81,124.05 365.73,124.05 335.36,168.73 328.42,168.73 328.42,60.12 
	300,60.12 300,240 328.42,240 328.42,190.04 335.36,190.04 351.63,211.13 351.63,211.13 373.91,240 "/>
<path class="st0" d="M125.14,125.14L125.14,125.14C125.14,188.58,176.56,240,240,240l0,0V125.14H125.14z"/>
<path class="st1" d="M84.92,0H0v240h114.92V30C114.92,13.43,101.49,0,84.92,0z"/>
<path class="st2" d="M125.14,0.12v114.86l0,0C188.58,114.98,240,63.56,240,0.12l0,0C240,0.12,125.14,0.12,125.14,0.12z"/>
</svg>
