<?xml version="1.0" encoding="UTF-8" standalone="no"?>
<!-- Generator: Adobe Illustrator 22.1.0, SVG Export Plug-In . SVG Version: 6.00 Build 0)  -->

<svg
   xmlns:dc="http://purl.org/dc/elements/1.1/"
   xmlns:cc="http://creativecommons.org/ns#"
   xmlns:rdf="http://www.w3.org/1999/02/22-rdf-syntax-ns#"
   xmlns:svg="http://www.w3.org/2000/svg"
   xmlns="http://www.w3.org/2000/svg"
   xmlns:sodipodi="http://sodipodi.sourceforge.net/DTD/sodipodi-0.dtd"
   xmlns:inkscape="http://www.inkscape.org/namespaces/inkscape"
   version="1.1"
   id="Calque_1"
   x="0px"
   y="0px"
   viewBox="0 0 2267.7 907.1"
   style="enable-background:new 0 0 2267.7 907.1;"
   xml:space="preserve"
   sodipodi:docname="Logo-MAX-couleur.svg"
   inkscape:version="0.92.4 (5da689c313, 2019-01-14)"><metadata
   id="metadata81"><rdf:RDF><cc:Work
       rdf:about=""><dc:format>image/svg+xml</dc:format><dc:type
         rdf:resource="http://purl.org/dc/dcmitype/StillImage" /></cc:Work></rdf:RDF></metadata><defs
   id="defs79" /><sodipodi:namedview
   pagecolor="#ffffff"
   bordercolor="#666666"
   borderopacity="1"
   objecttolerance="10"
   gridtolerance="10"
   guidetolerance="10"
   inkscape:pageopacity="0"
   inkscape:pageshadow="2"
   inkscape:window-width="1920"
   inkscape:window-height="1001"
   id="namedview77"
   showgrid="false"
   inkscape:zoom="6.2653791"
   inkscape:cx="2217.3249"
   inkscape:cy="833.70041"
   inkscape:window-x="-9"
   inkscape:window-y="-9"
   inkscape:window-maximized="1"
   inkscape:current-layer="Calque_1" />
<style
   type="text/css"
   id="style2">
	.st0{fill:#F89730;}
	.st1{fill:none;}
	.st2{fill:#EE2F33;}
	.st3{fill:#F2642A;}
</style>
<title
   id="title4">Logo-MAX-couleur-reussite-collaborative</title>
<g
   id="g74">
	
	
	<path
   class="st1"
   d="M1947.9,728.4c-7.5,0-13.4,2.4-17.6,7.1s-7.1,11.1-8.7,19.2h50.8c-1.2-8.3-3.9-14.7-8.2-19.3   C1960.1,730.8,1954.1,728.2,1947.9,728.4z"
   id="path10" />
	<path
   class="st1"
   d="M453.7,741.3c-4.3-6.4-10.5-9.7-18.6-9.7c-7.7,0-13.8,3-18.3,9.1s-6.8,14.1-6.8,24.1c0,9.8,2.3,17.9,6.8,24.3   c4,6.1,11,9.7,18.3,9.5c8.1,0,14.3-3.2,18.6-9.5s6.5-14.4,6.5-24.3C460.1,755.6,458,747.7,453.7,741.3z"
   id="path12" />
	<path
   class="st1"
   d="M177.2,697.4h-27.4V804h27.4c13.9,0,25.2-4.4,33.9-13.3s13.1-22,13.1-39.6c0-17.1-4.2-30.4-12.7-39.7   S191.7,697.4,177.2,697.4z"
   id="path14" />
	<path
   class="st1"
   d="M781.8,784.4c-8.1,1.7-13.6,3.9-16.5,6.4s-4.3,6-4.3,10.4c0,5,1.7,8.6,5.2,10.8c3.5,2.2,7.6,3.4,11.8,3.3   c6.2,0.1,12.3-2,17.2-5.8c5.1-3.8,7.7-10.2,7.7-19.1v-13c-3,1.4-6,2.7-9.1,3.8C789.9,782.6,785.9,783.6,781.8,784.4z"
   id="path16" />
	<path
   class="st1"
   d="M1276.5,735.3c-4.2-4.5-10.1-7.1-16.3-6.9c-7.5,0-13.4,2.4-17.6,7.1s-7.1,11.1-8.7,19.2h50.8   C1283.6,746.4,1280.8,740,1276.5,735.3z"
   id="path18" />
	<path
   class="st2"
   d="M225.6,654.4c-13.1-4.7-27-7.1-40.9-6.9H89.5v206.4h92.7c16,0,30.4-2.3,43.2-6.8c12.2-4.2,23.3-10.9,32.6-19.9   c9.2-9.1,16.2-20.1,20.5-32.2c4.7-12.7,7.1-27.3,7.1-43.9c0-16.4-2.5-31-7.4-43.9c-4.5-12.2-11.5-23.3-20.6-32.6   C248.5,665.7,237.6,658.8,225.6,654.4z M211.2,790.7c-8.8,8.9-20.1,13.3-33.9,13.3h-27.4V697.4h27.4c14.4,0,25.9,4.7,34.4,14   s12.7,22.6,12.7,39.7C224.3,768.6,219.9,781.8,211.2,790.7z"
   id="path20" />
	<rect
   x="299.6"
   y="647.5"
   class="st2"
   width="54.6"
   height="41.3"
   id="rect22" />
	<rect
   x="299.6"
   y="706.7"
   class="st2"
   width="54.6"
   height="147.2"
   id="rect24" />
	<path
   class="st2"
   d="M465.6,891.5c8.9-2.2,17.2-6.5,24.3-12.4c6.8-6,12.2-13.4,15.7-21.7c3.9-8.9,5.9-19.2,5.9-31.2V696.7h-52v16.2   h-0.9c-4.1-6.3-9.7-11.5-16.3-15.2c-6.6-3.8-15.2-5.6-25.6-5.6c-8.6-0.1-17.1,1.9-24.7,5.8c-7.4,3.8-13.8,9.3-18.9,15.9   c-5.4,7.2-9.5,15.2-12.1,23.8c-3,9.6-4.4,19.6-4.3,29.6c0,11.5,1.7,21.7,5.1,30.3c3,8.1,7.7,15.5,13.7,21.8   c5.6,5.8,12.4,10.2,19.9,13.1c7.7,2.9,15.8,4.4,24,4.3c8.7,0,15.9-1.5,21.8-4.6c5.8-3,11.1-7.1,15.4-12.1h1.2v13.3   c0,7.7-1.7,13.9-5.2,18.6s-9.6,7.1-18.5,7.1c-6.5,0-11.6-1.3-15.2-3.9s-5.8-5.4-6.8-8.5h-52.5c2.7,16.4,10.7,28.6,24.1,36.7   c13.4,8.1,30.5,12.1,51.2,12.1C445.3,895.4,455.6,894.1,465.6,891.5z M453.7,789c-4.3,6.4-10.5,9.5-18.6,9.5   c-7.3,0.2-14.2-3.4-18.3-9.5c-4.5-6.4-6.8-14.4-6.8-24.3s2.3-18,6.8-24.1s10.6-9.1,18.3-9.1c8.1,0,14.3,3.2,18.6,9.7   s6.5,14.3,6.5,23.5C460.1,774.6,458,782.7,453.7,789z"
   id="path26" />
	<rect
   x="531.2"
   y="637.5"
   class="st2"
   width="54.6"
   height="41.3"
   id="rect28" />
	<rect
   x="531.2"
   y="696.7"
   class="st2"
   width="54.6"
   height="147.2"
   id="rect30" />
	<path
   class="st2"
   d="M698,729.6v-32.9h-28V649h-53.4v47.6h-19.1v32.9h19.1v71.9c0,8.9,1.2,16.2,3.5,21.9   c2.1,5.4,5.6,10.2,10.1,13.9c4.4,3.5,10,5.9,16.7,7.4c7.8,1.5,15.7,2.3,23.7,2.2c4.7,0,9.4-0.3,14-1c4.3-0.7,8.6-1.5,12.8-2.5   v-40.1c-3.8,0.4-7.6,0.5-11.4,0.4c-3,0-5.9-0.5-8.7-1.4c-2.3-0.8-4.2-2.3-5.5-4.3c-1.3-2-1.9-4.9-1.9-8.5v-59.8H698z"
   id="path32" />
	<path
   class="st2"
   d="M793.3,752.1c-4,1.6-8.1,2.7-12.3,3.5c-5.1,1-11.5,1.8-19.2,2.6c-6.9,0.7-13.7,2-20.4,3.8   c-6.1,1.6-11.9,4.2-17,7.8c-4.9,3.5-8.9,8.1-11.7,13.4c-2.9,5.5-4.3,12.3-4.3,20.4c0,7.3,1.2,13.7,3.8,19.2   c2.3,5.3,5.8,10,10.2,13.7c4.5,3.8,9.8,6.7,15.4,8.4c6.3,2,13,2.9,19.6,2.9c9.6,0,18.2-1.6,25.7-4.9c7.5-3.3,14-8.4,18.8-15h0.6   c0.4,3.3,1.2,6.6,2.2,9.8c0.8,2.2,1.7,4.3,2.7,6.4h53.7v-2.3c-2.3-1.5-3.8-4-4.5-7.5c-0.8-4.8-1.1-9.6-1-14.4V746   c0-20-7.6-34.7-22.8-44.2c-6.1-3.7-12.8-6.2-19.8-7.5c-9.4-1.7-18.9-2.4-28.4-2.3c-11.5,0-21.7,1.4-30.3,4.2   c-7.9,2.4-15.3,6.3-21.7,11.4c-5.6,4.5-10.1,10.3-13.1,16.9c-3,6.5-4.6,13.5-4.8,20.6h51.7c0.8-5.4,2.7-9.7,5.8-12.8   s7.6-4.8,13.6-4.8s10.1,1.3,12.3,4c2.3,2.9,3.4,6.5,3.3,10.1c0,2.1-0.5,4.2-1.7,5.9C798.5,749.3,796.4,750.7,793.3,752.1z    M802.9,777.5v13c0,8.9-2.6,15.2-7.7,19.1c-4.9,3.8-11,5.9-17.2,5.8c-4.2,0.1-8.3-1.1-11.8-3.3c-3.5-2.2-5.2-5.8-5.2-10.8   c0-4.4,1.4-7.9,4.3-10.4s8.4-4.6,16.5-6.4c4.1-0.8,8.1-1.9,12-3.2C797.1,780.1,800.2,778.8,802.9,777.5L802.9,777.5z"
   id="path34" />
	<rect
   x="876.5"
   y="637.5"
   class="st2"
   width="56"
   height="206.4"
   id="rect36" />
	<path
   class="st0"
   d="M1171.3,779.8c0-11-2-20.2-5.9-27.6c-3.8-7.3-9.2-13.6-15.7-18.6c-6.7-5.1-14.2-9.2-22.2-12   c-8.3-3-16.8-5.5-25.4-7.6c-7.7-1.9-14.6-3.5-20.6-4.8c-5.2-1-10.3-2.4-15.3-4c-4.1-1.4-7.3-3.1-9.4-5.1c-2.1-1.9-3.3-4.7-3.2-7.5   c0-4.2,2.1-7.7,6.2-10.4s9.6-4,16.3-4c8.3,0,14.5,1.7,18.6,5.1c4.1,3.4,6.9,8.1,7.7,13.4h59.8c-0.2-11.2-2.6-20.7-7.2-28.7   c-4.5-7.9-10.9-14.6-18.5-19.6c-8.1-5.3-17-9-26.4-11.1c-10.1-2.3-20.4-3.5-30.7-3.5c-11.1,0-22.1,1.2-32.9,3.6   c-9.7,2.1-18.8,6-27.1,11.4c-7.7,5.1-13.9,12.1-18.3,20.2c-4.5,8.3-6.8,18.3-6.8,30c0,11,2.4,20.1,7.1,27.4   c4.7,7.3,10.9,13.4,18.2,18c7.7,4.8,16,8.7,24.7,11.4c9,2.9,17.9,5.4,26.6,7.5c6.4,1.5,12,3,16.9,4.3c4.2,1.1,8.3,2.5,12.3,4.3   c2.9,1.2,5.5,3.1,7.5,5.5c1.8,2.2,2.7,5,2.6,7.8c0.1,2.8-0.8,5.6-2.5,7.9c-1.6,2.2-3.7,4-6.2,5.3c-2.7,1.4-5.5,2.4-8.5,2.9   c-3,0.6-6,0.9-9.1,0.9c-10,0-18-2-24.1-5.9s-9.6-10.1-10.5-18.3h-61.8c0.2,11.9,2.7,22.3,7.7,31.2c4.9,8.9,11.8,16.4,20.2,22.1   c9.1,6.1,19.3,10.6,30,13.1c12.2,3,24.8,4.4,37.4,4.3c11.6,0.1,23.2-1.4,34.4-4.5c10.1-2.7,19.7-7.1,28.3-13.1   c8-5.6,14.5-13,19.2-21.5C1169.2,800.3,1171.4,790.1,1171.3,779.8z"
   id="path38" />
	<path
   class="st0"
   d="M1308.1,835.5c7-4.3,13.2-9.8,18.3-16.2c4.6-5.6,7.9-12.2,9.7-19.3h-52.8c-4,7.3-10.9,11-20.5,11   c-8.3,0-14.8-2.4-19.5-7.2c-4.7-4.8-7.8-11.5-9.4-20.2H1339c0.5-13.8-1.4-27.6-5.8-40.7c-3.9-11.9-10.7-22.7-19.9-31.2   c-6.9-6.3-14.8-11.2-23.5-14.6c-9-3.6-19.2-5.3-30.8-5.3c-10.9-0.1-21.7,1.9-31.8,5.9c-9.3,3.7-17.8,9.3-24.8,16.5   c-7,7.1-12.5,15.6-16.2,24.8c-7.7,20-7.7,42.3,0,62.3c3.7,9.3,9.3,17.7,16.5,24.7c7.3,7,15.9,12.5,25.4,16.2   c10.5,4,21.7,5.9,32.9,5.8c8.6,0.1,17.2-0.9,25.6-2.9C1294.3,843.1,1301.5,839.9,1308.1,835.5z M1242.6,735.5   c4.2-4.7,10.1-7.1,17.6-7.1c6.2-0.2,12.1,2.4,16.3,6.9c4.3,4.6,7.1,11.1,8.2,19.3h-50.8C1235.4,746.6,1238.3,740.2,1242.6,735.5z"
   id="path40" />
	<path
   class="st0"
   d="M1458,741.4h1.2v-46.5c-1.9-1-4.9-1.4-9-1.4c-9.4,0-17.8,1.9-25,5.8s-13.8,10.4-19.8,19.6h-0.9v-22.2h-52   v147.2h54.6v-60.3c0-16.7,4.4-28.6,13.3-35.7S1441.8,738.7,1458,741.4z"
   id="path42" />
	<path
   class="st0"
   d="M1559.3,753.2c-1.2,3.9-2.3,7.8-3.5,12s-2.2,7.9-3.2,11.4c-1.2,4-2.2,8.1-3.2,12.1h-0.6   c-1.2-4-2.2-8.1-3.2-12.1c-1-3.5-2-7.3-3.2-11.4s-2.2-8.1-3.2-12l-16.7-56.6H1466l50.5,147.2h63.8l50.5-147.2H1576L1559.3,753.2z"
   id="path44" />
	<rect
   x="1638.7"
   y="696.7"
   class="st0"
   width="54.6"
   height="147.2"
   id="rect46" />
	<rect
   x="1638.7"
   y="637.5"
   class="st0"
   width="54.6"
   height="41.3"
   id="rect48" />
	<path
   class="st0"
   d="M1787.1,730.4c6,0,10.6,1.8,13.9,5.3s5.7,8.7,7.2,15.4h52.5c-0.9-8.3-3.3-16.4-7.2-23.8   c-3.8-7.1-9-13.4-15.2-18.6c-6.6-5.3-14.1-9.4-22.2-12.1c-9.2-3-18.8-4.4-28.4-4.3c-11.3-0.1-22.5,1.9-33.1,5.9   c-9.6,3.7-18.3,9.3-25.6,16.5c-7.1,7.1-12.7,15.5-16.5,24.8c-7.7,19.9-7.7,42.1,0,62c3.7,9.3,9.3,17.7,16.5,24.7   c7.3,7.1,16.1,12.6,25.6,16.3c10.6,4,21.8,6,33.1,5.9c10.3,0.1,20.5-1.5,30.2-4.9c8.6-3,16.5-7.6,23.4-13.6   c6.4-5.7,11.5-12.6,15-20.4c3.6-7.9,5.4-16.6,5.3-25.3H1809c-0.8,8.5-2.8,14.9-6.2,19.2s-8.4,6.5-15.2,6.5   c-8.5,0-14.8-3.5-19.1-10.5s-6.4-16.7-6.4-29c0-12.5,2-22.3,6.1-29.5C1772.4,734,1778.6,730.4,1787.1,730.4z"
   id="path50" />
	<path
   class="st0"
   d="M2020.9,742.9c-3.9-11.9-10.7-22.7-19.9-31.2c-6.9-6.3-14.8-11.2-23.5-14.6c-8.9-3.6-19.2-5.3-30.7-5.3   c-10.9-0.1-21.7,1.9-31.8,5.9c-9.3,3.7-17.8,9.3-24.8,16.5c-7,7.1-12.5,15.6-16.2,24.8c-7.7,20-7.7,42.3,0,62.3   c3.7,9.3,9.3,17.7,16.5,24.7c7.3,7,15.9,12.5,25.4,16.2c10.5,4,21.7,5.9,32.9,5.8c8.6,0.1,17.2-0.9,25.6-2.9   c7.7-1.9,14.9-5.1,21.5-9.5c7-4.3,13.2-9.8,18.3-16.2c4.6-5.6,7.9-12.2,9.7-19.3H1971c-4,7.3-10.9,11-20.5,11   c-8.3,0-14.8-2.4-19.5-7.2c-4.7-4.8-7.8-11.5-9.4-20.2h105.1C2027.2,769.9,2025.3,756,2020.9,742.9z M1921.6,754.7   c1.5-8.1,4.4-14.5,8.7-19.2c4.2-4.7,10.1-7.1,17.6-7.1c6.2-0.2,12.1,2.4,16.3,6.9c4.3,4.6,7.1,11.1,8.2,19.3L1921.6,754.7   L1921.6,754.7z"
   id="path52" />
	<path
   class="st0"
   d="M2157.9,758.9c-6.1-3.6-12.7-6.2-19.6-7.7c-7.2-1.5-14.2-2.8-20.9-3.8c-4.2-0.6-8.2-1.2-11.8-1.7   c-3.3-0.5-6.5-1.2-9.7-2.2c-2.4-0.7-4.6-1.8-6.5-3.3c-1.5-1.3-2.3-3.2-2.3-5.2c0-3.8,1.6-6.6,4.8-8.2c3.4-1.7,7.1-2.5,10.8-2.5   c4.1-0.1,8.2,0.8,12,2.5c3.6,1.6,5.7,5.2,6.5,10.8h51.4c-1-14.4-7.3-25.6-18.9-33.6c-11.6-8-28.7-12-51.2-12c-8.7,0-17.3,1-25.7,3   c-7.6,1.8-14.8,4.9-21.4,9.1c-5.9,3.8-10.9,8.9-14.6,14.9c-3.6,6.1-5.4,13-5.3,20.1c0,9.2,1.6,16.7,4.9,22.5   c3.1,5.5,7.4,10.2,12.6,13.7c5.3,3.4,11.1,5.9,17.2,7.4c6.4,1.5,12.6,2.8,18.8,3.8c4.8,0.8,9.4,1.5,13.7,2.2   c3.9,0.6,7.7,1.4,11.4,2.6c2.9,0.9,5.6,2.3,7.9,4.3c2,1.9,3.1,4.6,3,7.4c0,4.4-1.8,7.7-5.3,9.7s-8,3-13.4,3c-6.9,0-12.3-1.7-16-5.1   s-5.8-8.1-6.2-14.3h-52.3c0,8.5,1.8,16,5.5,22.5c3.8,6.6,9,12.2,15.3,16.5c7.2,4.7,15.1,8.1,23.4,10.1c9.8,2.4,19.9,3.6,30,3.5   c9.5,0,19-0.9,28.3-2.9c8.2-1.6,16-4.7,23.1-9.1c6.3-3.9,11.6-9.3,15.4-15.7c3.8-6.4,5.6-14,5.6-22.8c0-10.2-1.9-18.4-5.8-24.7   C2169,767.6,2164,762.5,2157.9,758.9z"
   id="path54" />
	<path
   class="st3"
   d="M1413.7,503l118.2-117.7l-245.4-244.6C1235.8,88.4,1166,58.9,1093.1,59c-149,0-269.8,120.8-269.8,269.8   S944,598.7,1093,598.7c74,0.1,144.8-30.3,195.7-84.1l49.6-49.8l-7.8-7.8l0,0l-55-55l0,0l-55.2-55.2l-54.9,55.1l0.2,0.2h-0.6   c-40.5,39.8-105.6,39.3-145.4-1.1s-39.3-105.6,1.1-145.4c39.9-39.3,103.9-39.4,144-0.3h0.3l147.1,146.6L1413.7,503z"
   id="path56" />
	<path
   class="st0"
   d="M2179,524.3l-118.2-118.2c-41.8,38.3-106.8,35.5-145.2-6.3c-16.5-18-26-41.3-26.9-65.7c0-2.1,0.1-4.2,0.1-6.4   V325c2.9-56.7,51.3-100.3,108-97.4c22,1.1,43,9.3,60,23.3L2175,132.6c-104-96.6-265.1-96.1-368.5,1.2   c-103.1-99.7-266.1-101.4-371.2-3.8l118.3,118.3c43.8-36.1,108.6-29.8,144.7,14.1c14.3,17.4,22.5,39,23.3,61.5   c0,2.1-0.1,4.2-0.1,6.4v2.7c-2.9,56.7-51.3,100.3-108,97.4c-23.8-1.2-46.5-10.7-64.1-26.9l-118.2,118.2   c103.6,100.2,267.6,101.3,372.5,2.6C1908.3,625.5,2074.4,625.5,2179,524.3z"
   id="path58" />
	<path
   class="st2"
   d="M871.1,175.3l-3.6,5.4C868.6,178.9,869.8,177.1,871.1,175.3z"
   id="path60" />
	<path
   class="st2"
   d="M876.8,167.4c-1.9,2.6-3.8,5.2-5.7,7.9C872.9,172.6,874.8,170,876.8,167.4z"
   id="path62" />
	<path
   class="st2"
   d="M893.2,147.4c-3.6,4-7.1,8.1-10.5,12.3C886.1,155.5,889.6,151.4,893.2,147.4z"
   id="path64" />
	<path
   class="st2"
   d="M880.7,162.3c-1.3,1.7-2.7,3.4-3.9,5.1C878,165.7,879.4,164,880.7,162.3z"
   id="path66" />
	<path
   class="st2"
   d="M820.8,213.9c14.8-35.1,36.3-67,63.3-93.9c1.3-1.3,2.6-2.5,3.9-3.8c-105.7-83.9-257.1-76.8-354.5,16.5   c-50.2-48.2-117.1-75.1-186.7-75C197.8,57.8,77,178.6,77,327.6c0,3.5,0.1,7.1,0.2,10.6v260.7h167v-272l0,0   c-0.1-1.6-0.1-3.2-0.1-4.8c0-56.8,46-102.8,102.8-102.8s102.8,46,102.8,102.8c0,1.6,0,3.2-0.1,4.8l0,0v272H617v-272   c-0.1-1.6,0-3.2,0-4.8c0-56.8,46.5-102.8,103.3-102.8c33.8,0,65.4,16.6,84.6,44.4C808.7,246.7,814,230,820.8,213.9z"
   id="path68" />
	<path
   class="st2"
   d="M823.2,326.9c0.2-42,10.3-83.4,29.5-120.8C833.5,243.5,823.4,284.9,823.2,326.9L823.2,326.9z"
   id="path70" />
	<path
   class="st2"
   d="M867.4,180.7c-4.8,7.2-9.2,14.7-13.3,22.4C858.2,195.4,862.7,187.9,867.4,180.7z"
   id="path72" />
</g>
</svg>