<?xml version="1.0" encoding="UTF-8"?><svg id="a" xmlns="http://www.w3.org/2000/svg" viewBox="0 0 27.49 29.81"><defs><style>.b{fill:#172676;}</style></defs><g><path class="b" d="M12.66,8.36c-.55,0-1.14,.16-1.76,.46s-1.11,.69-1.46,1.15v11.12h6.58V12.3c0-1.37-.26-2.37-.79-3s-1.38-.94-2.57-.94Z"/><path class="b" d="M12.76,0C5.73,0,0,5.73,0,12.76c0,3.07,1.1,6.02,3.09,8.34h2.6V5.52h2.7l.69,1.5c1.02-1.2,2.52-1.8,4.51-1.8s3.42,.57,4.52,1.72c1.1,1.14,1.66,2.74,1.66,4.79v9.37h2.67c2-2.32,3.09-5.26,3.09-8.34,0-7.03-5.73-12.76-12.77-12.76Z"/></g><path class="b" d="M8.19,28.21v-2.36c0-.43-.06-.74-.2-.91-.13-.17-.35-.26-.65-.26-.16,0-.34,.05-.52,.15s-.32,.22-.41,.36v3.02h-.72v-4.06h.49l.23,.52c.24-.4,.63-.6,1.16-.6,.89,0,1.33,.54,1.33,1.62v2.51h-.71Z"/><path class="b" d="M13.35,26.25h-2.93c0,.48,.13,.84,.39,1.1,.23,.22,.53,.33,.89,.33,.41,0,.76-.12,1.03-.36l.3,.52c-.11,.11-.28,.21-.51,.29-.29,.11-.61,.16-.96,.16-.51,0-.94-.17-1.3-.52-.4-.38-.6-.9-.6-1.54s.2-1.21,.61-1.61c.36-.36,.79-.54,1.29-.54,.58,0,1.03,.16,1.36,.49,.32,.31,.48,.73,.48,1.25,0,.16-.02,.31-.06,.44h.01Zm-1.75-1.58c-.32,0-.59,.1-.81,.31-.21,.2-.33,.44-.35,.74h2.25c0-.29-.09-.53-.27-.73-.2-.21-.47-.32-.82-.32Z"/><path class="b" d="M14.42,24.72h-.47v-.57h.47v-.85l.72-.28v1.13h1.12v.57h-1.12v2.02c0,.34,.06,.58,.17,.73s.3,.22,.56,.22c.18,0,.38-.05,.57-.14l.11,.63c-.3,.08-.63,.11-.98,.11-.32,0-.59-.12-.81-.36s-.33-.54-.33-.91v-2.31h-.01Z"/><path class="b" d="M17.34,26.29v-.66h1.62v.66h-1.62Z"/><path class="b" d="M22.6,28.21v-2.36c0-.43-.06-.74-.2-.91-.13-.17-.35-.26-.65-.26-.16,0-.34,.05-.52,.15s-.32,.22-.41,.36v3.02h-.72v-4.06h.49l.23,.52c.24-.4,.63-.6,1.16-.6,.89,0,1.33,.54,1.33,1.62v2.51h-.71Z"/><path class="b" d="M24.19,29.32l.39-.58c.42,.28,.81,.42,1.16,.42,.33,0,.58-.06,.77-.17s.28-.25,.28-.42c0-.33-.24-.49-.71-.49-.08,0-.23,.02-.44,.06-.21,.04-.38,.06-.5,.06-.58,0-.87-.22-.87-.65,0-.13,.07-.25,.2-.36,.14-.11,.3-.19,.5-.23-.57-.27-.86-.73-.86-1.4,0-.42,.15-.78,.44-1.06,.3-.28,.66-.42,1.1-.42,.4,0,.71,.08,.94,.25l.36-.43,.47,.44-.43,.33c.18,.24,.28,.55,.28,.94,0,.41-.13,.75-.38,1.03-.26,.28-.59,.44-1,.48l-.6,.06c-.07,0-.17,.04-.28,.08-.12,.05-.18,.11-.18,.18,0,.1,.12,.16,.37,.16,.11,0,.28-.02,.51-.06,.23-.04,.4-.06,.51-.06,.4,0,.71,.09,.93,.29,.22,.19,.34,.46,.34,.79,0,.37-.17,.68-.5,.91s-.76,.34-1.27,.34c-.26,0-.54-.05-.83-.14-.29-.09-.53-.21-.7-.34h0Zm1.53-4.68c-.25,0-.45,.09-.61,.27s-.24,.39-.24,.64c0,.28,.08,.52,.23,.7,.15,.19,.36,.28,.62,.28s.46-.09,.6-.27c.14-.18,.22-.42,.22-.71,0-.25-.08-.47-.23-.64-.16-.18-.35-.27-.58-.27h-.01Z"/></svg>