<?xml version="1.0" encoding="utf-8"?>
<!-- Generator: Adobe Illustrator 26.0.0, SVG Export Plug-In . SVG Version: 6.00 Build 0)  -->
<svg version="1.1" baseProfile="tiny" id="Calque_1"
	 xmlns="http://www.w3.org/2000/svg" xmlns:xlink="http://www.w3.org/1999/xlink" x="0px" y="0px" width="377.9px" height="127.2px"
	 viewBox="0 0 377.9 127.2" overflow="visible" xml:space="preserve">
<g id="CYIM_x5F_logo_x5F_baseline_00000097477637689595005820000018104067607701456317_">
	<rect x="185.5" y="25.5" fill="#1E4E66" width="18.2" height="81.2"/>
	<path fill="#1E4E66" d="M181.1,34.4c0,9.5-3.1,17.9-9.4,25.4c-6.2,7.4-14.2,12.1-23.7,14.2v32.7h-18.2V74
		c-9.7-2-17.5-6.8-23.8-14.2c-6.2-7.4-9.3-15.8-9.3-25.4v-8.7h18.2v8.7c0,6.4,2.3,11.8,7.1,16.3c4.7,4.4,10.4,6.7,17,6.7
		c6.5,0,12.2-2.3,16.9-6.7c4.7-4.4,7.2-9.9,7.2-16.3v-8.7h18.2V34.4z"/>
	<path fill="#30DD92" d="M152.7,34.3c0,7.6-6.2,13.9-13.9,13.9S125,42,125,34.3s6.2-13.9,13.9-13.9
		C146.5,20.5,152.7,26.7,152.7,34.3"/>
	<path fill="#1E4E66" d="M125.3,106.7H61.5c-11.5,0-21.4-4-29.8-11.8C23.3,87,19.1,77.5,19.1,66.2c0-11.2,4.2-20.8,12.5-28.6
		c8.4-7.9,18.3-11.8,29.8-11.8h30.7v17.5H61.5c-6.5,0-12.1,2.3-17,6.7c-4.7,4.5-7.1,9.9-7.1,16.3s2.3,11.8,7.1,16.3
		c4.8,4.5,10.4,6.7,17,6.7h63.8V106.7z"/>
	<path fill="#1E4E66" d="M358.8,106.7h-18.2V66.2c0-6.4-2.4-11.8-7.2-16.3c-4.7-4.5-10.4-6.8-16.9-6.8c-6.5,0-12.1,2.3-17,6.8
		c-4.7,4.5-7.1,9.9-7.1,16.3v40.6h-18.2V66.2c0-6.4-2.4-11.8-7.2-16.3c-4.7-4.5-10.4-6.8-16.9-6.8c-6.5,0-12.1,2.3-16.9,6.8
		c-4.7,4.5-7.1,9.9-7.1,16.3v40.6H208V66.2c0-11.2,4.1-20.8,12.5-28.6s18.3-11.8,29.8-11.8c6.4,0,12.5,1.4,18.4,4.1
		s10.8,6.5,14.9,11.3c3.9-4.7,8.9-8.6,14.8-11.3s12.1-4.1,18.4-4.1c11.4,0,21.3,4,29.7,11.8c8.2,7.9,12.4,17.4,12.4,28.6V106.7z"/>
</g>
</svg>
