<svg xmlns="http://www.w3.org/2000/svg" width="500" height="500" version="1.0" viewBox="0 0 375 375"><defs><clipPath id="a"><path d="M135 149.031h22V177h-22Zm0 0"/></clipPath><clipPath id="b"><path d="M212 297h13v40.281h-13Zm0 0"/></clipPath><clipPath id="c"><path d="M127 290h35v47.281h-35Zm0 0"/></clipPath><clipPath id="d"><path d="M197 149.031h7V169h-7Zm0 0"/></clipPath><clipPath id="e"><path d="M290.21 105h36.75v65h-36.75Zm0 0"/></clipPath></defs><path d="M307.66 215.992c-17.844-.172-45.66-2.43-49.164-7.953-3.402-5.375 14.43-32.754 26.473-48.754a1.177 1.177 0 0 0-.153-1.586 1.196 1.196 0 0 0-1.601.008c-10.871 9.988-41.121 34.719-50.512 29.305-11.308-6.52-7.219-26.567-7.18-26.766a1.175 1.175 0 0 0-.753-1.355 1.195 1.195 0 0 0-1.454.543c-.125.238-12.82 23.336-25.953 23.336-.097 0-.195 0-.293-.008-13.222-.34-26.086-28.078-26.215-28.356a1.183 1.183 0 0 0-1.449-.633 1.176 1.176 0 0 0-.789 1.364c.063.285 5.906 28.734-5.883 36.535-9.332 6.187-42.539-8.274-57.183-15.656a88.844 88.844 0 0 0-2.246-1.149 1.195 1.195 0 0 0-1.582.528 1.18 1.18 0 0 0 .511 1.585c.23.122 1.059.551 2.368 1.208 12.273 6.44 36.472 21.91 32.136 33.023-4.238 10.855-25.695 10.148-36.183 9.11a122.068 122.068 0 0 0-5.875-.743 1.18 1.18 0 0 0-1.293 1.02 1.183 1.183 0 0 0 .972 1.324c.368.066 2.711.457 6.16.8 11.02 1.7 27.622 5.602 28.168 11.973.149 1.707-2.019 6.918-25.25 18.301-13.046 6.395-26.378 11.59-26.511 11.64a1.19 1.19 0 0 0-.68 1.528c.234.61.914.914 1.527.688 14.63-5.434 54.258-17.73 61.848-9.536 8.945 9.664-8.762 29.59-8.941 29.793a1.179 1.179 0 0 0 .035 1.614c.433.445 1.14.48 1.62.078.235-.2 24.102-20.156 38.497-11.906 14.535 8.328 15.266 42.898 15.27 43.25a1.187 1.187 0 0 0 1.132 1.164h.055c.606 0 1.113-.457 1.18-1.059.043-.367 4.129-36.602 20.824-40.652 16.777-4.063 38.437 21.199 38.656 21.453a1.18 1.18 0 0 0 1.508.254c.496-.293.711-.903.504-1.442-.117-.304-11.438-30.23-1.57-38.836 8.234-7.175 38.66 3.828 49.691 8.684a1.183 1.183 0 0 0 1.047-2.121c-11.246-6.184-39.8-24.145-36.918-32.922 2.945-8.957 33.91-14.805 45.594-16.3a1.183 1.183 0 0 0 1.03-1.243 1.187 1.187 0 0 0-1.175-1.133Zm0 0"/><g clip-path="url(#a)"><path d="M154.055 176.2a1.18 1.18 0 0 0 1.601.214 1.183 1.183 0 0 0 .332-1.582l-15.199-25.168a1.186 1.186 0 0 0-.902-.566 1.165 1.165 0 0 0-.992.379l-2.864 3.148a1.176 1.176 0 0 0-.043 1.543Zm0 0"/></g><g clip-path="url(#b)"><path d="M215.203 298.465a1.186 1.186 0 0 0-1.344-.887 1.182 1.182 0 0 0-.988 1.266l3.059 37.379a1.2 1.2 0 0 0 1.183 1.09c.098 0 .207-.012.309-.043l5.734-1.528a1.18 1.18 0 0 0 .848-1.426Zm0 0"/></g><path d="M262.418 273.527a1.19 1.19 0 0 0-1.594.059 1.183 1.183 0 0 0-.094 1.594l16.918 20.882c.227.278.563.438.926.438h.004c.363 0 .703-.172.926-.45l3.156-4.007c.399-.5.32-1.223-.164-1.633Zm-140.34 21.711c-1.371.782-8.219 4.856-8.644 8.457-.118.989.214 1.883.968 2.586.567.535 1.23.813 1.926.813.215 0 .434-.024.649-.078 3.285-.809 6.043-8.137 6.816-10.36.16-.469.016-.984-.367-1.297a1.195 1.195 0 0 0-1.348-.12Zm0 0"/><g clip-path="url(#c)"><path d="M161.355 291.098a1.18 1.18 0 0 0-1.582.265l-31.543 40.438a1.195 1.195 0 0 0-.218 1.008c.082.347.324.644.652.793l7.742 3.597a1.179 1.179 0 0 0 1.54-.512l23.804-44.039a1.172 1.172 0 0 0-.395-1.55Zm0 0"/></g><g clip-path="url(#d)"><path d="M198.852 149.09c-.653 0-1.188.531-1.188 1.183v16.88c0 .609.465 1.117 1.07 1.175.04.008.075.008.118.008.558 0 1.05-.39 1.164-.945l3.441-16.88c.07-.35-.02-.71-.246-.984a1.204 1.204 0 0 0-.918-.437Zm0 0"/></g><g clip-path="url(#e)"><path fill="#9955f6" d="M296.613 169.738a1.47 1.47 0 0 1-.691-.168 1.194 1.194 0 0 1-.59-.652 1.198 1.198 0 0 1-.008-.879l8.844-26.418h-12.465a1.05 1.05 0 0 1-.652-.101 1.047 1.047 0 0 1-.477-.461 1.222 1.222 0 0 1-.226-.641 1.227 1.227 0 0 1 .144-.664l15.906-33.45c.266-.472.672-.71 1.215-.718h16.668a1.37 1.37 0 0 1 1.156.613c.137.207.204.434.204.68 0 .246-.067.473-.204.68l-12.136 21.07h12.472c.508.043.907.277 1.196.7.125.23.176.476.152.737a1.233 1.233 0 0 1-.3.692l-29.145 38.523a1.59 1.59 0 0 1-1.063.457Zm0 0"/></g><path fill="none" stroke="#f1f1f1" stroke-width="7.924" d="M88.531 140.305c-1.047-3.25-1.87-5.684-2.472-7.301a223.993 223.993 0 0 0-1.344-3.531 30.305 30.305 0 0 0-.723-1.809 57.004 57.004 0 0 0-.851-1.805c-.344-.738-.852-1.933-1.52-3.586a1499.42 1499.42 0 0 1-2.914-7.218c0-.07-.035-.106-.105-.106a57.03 57.03 0 0 1-4.176 1.11c-1.446.308-2.875.601-4.285.879-.067 3.25-.246 6.515-.54 9.8a506.798 506.798 0 0 1-.93 9.852c-.066-.07-.194-.102-.386-.102a1.01 1.01 0 0 1-.465-.105c-.566-.137-1.402-.223-2.5-.258a105.94 105.94 0 0 0-3.406-.05c-1.84 0-3.2.034-4.074.1-.88.071-1.738.208-2.578.415-.844.207-2.184.488-4.024.851l-.312-5.496c.207-4.933.363-10.359.465-16.273.105-5.914.156-11.649.156-17.203 0-.86-.02-2.27-.05-4.23a1692.2 1692.2 0 0 1-.106-6.657c-.036-2.473-.067-4.926-.102-7.348-.035-2.425-.07-4.515-.105-6.27-.032-1.769-.051-2.94-.051-3.507l3.484-.617 20.067-2.555a30.794 30.794 0 0 1 5.75.13l5.777.616c3.164.344 5.906 1.239 8.227 2.684 2.34 1.445 4.265 3.207 5.78 5.289 1.512 2.078 2.657 4.23 3.43 6.445.774 2.219 1.196 4.25 1.262 6.09l-4.847 12.356a24.789 24.789 0 0 1-5.083 4.226 2687.966 2687.966 0 0 0 4.258 14.418 519.53 519.53 0 0 0 2.606 8.41c.633 1.961 1.125 3.473 1.469 4.54.359 1.05.644 2.03.851 2.94-1.117.43-2.7.903-4.746 1.419a913.748 913.748 0 0 0-6.035 1.597c-1.961.535-3.508 1.11-4.645 1.73-.066 0-.101.016-.101.052 0 .05-.035.078-.106.078Zm-19.215-36.473a87.12 87.12 0 0 1 7.016-3.094c2.426-.965 4.84-1.933 7.25-2.914a42.144 42.144 0 0 0 2.32-3.484 34.822 34.822 0 0 0 1.883-3.711c-.707-.98-1.426-1.98-2.168-2.992a81.152 81.152 0 0 0-2.27-3.02c-.48.07-1.238.137-2.269.207-1.015.07-2.012.102-2.992.102a307.8 307.8 0 0 1-5.57-.051 162.115 162.115 0 0 1-5.004-.156c.136.777.379 2.906.722 6.398.36 3.492.723 7.73 1.082 12.715Zm62.95 32.45-4.332-.415-5.7-.23-2.761-1.367-3.043-3.07-1.395-2.22-1.777-7.066v-.101c-.5-2.891-.88-5.325-1.137-7.301-.238-1.977-.43-3.742-.566-5.29a71.027 71.027 0 0 1-.258-4.64 241.83 241.83 0 0 1-.05-5.39c0-.915.015-2.02.05-3.329.035-1.308.121-3.105.258-5.39.136-2.29.285-5.262.437-8.926v-.102a.814.814 0 0 0 .106-.363c0-.102.035-.187.101-.258v-.129c1.188.086 2.383.184 3.586.285 1.203.102 2.363.188 3.48.258 1.774.07 3.5.157 5.188.258 1.684.106 3.41.192 5.184.258v.105c-.086.086-.13.215-.13.387v.152l-.312 11.09c-.066 2.39-.136 4.809-.203 7.25a89.693 89.693 0 0 1-.515 7.325 2428.74 2428.74 0 0 0-.649 5.726 235.561 235.561 0 0 0-.644 6.965l3.82 5.285c2.043 0 4.047-.11 6.008-.332l3.922-.621 1.675-4.77.102-.828.644-6.035-.101-15.734-1.367-8.149c0-1.05-.035-2.097-.102-3.148a34.735 34.735 0 0 0-.336-3.067l3.07-.648c2.044-.344 3.81-.582 5.286-.719 1.48-.156 3.172-.234 5.082-.234l.617 4.23c.363 2.391.594 4.051.7 4.977.1.914.151 1.437.151 1.574v.156c0-.035.02.215.055.747.031.535.153 1.71.36 3.535.222 2.886.402 5.812.543 8.77.136 2.956.203 5.913.203 8.87 0 0-.16.637-.489 1.91-.308 1.274-.66 2.715-1.058 4.332a68.71 68.71 0 0 1-1.082 4.13l-.852 2.628a203.878 203.878 0 0 0-2.656 3.278c-.48.636-.887 1.101-1.211 1.39-.313.278-.8.578-1.473.903-.668.312-1.812.921-3.43 1.832-2.82.207-5.234.406-7.245.593-2.012.172-3.93.395-5.754.672Zm31.894.1c0-3.937-.05-8.562-.152-13.874a849.34 849.34 0 0 1-.156-16.766c0-4.781.07-9.562.207-14.34.136-4.797.386-9.457.746-13.98 1.05 0 2.433.058 4.156.18 1.734.101 3.496.207 5.285.308 1.805.106 3.371.207 4.695.313 1.34.101 2.157.152 2.45.152l.207.336 13.953 31.469 1.574 3.172c.07-7.395.137-13.243.207-17.54.066-4.3.102-7.496.102-9.597v-6.988c.43 0 1.472.05 3.12.156 1.653.101 3.43.215 5.34.336 1.91.101 3.352.187 4.333.258 0 .632-.016 1.976-.051 4.023a439.426 439.426 0 0 0-.051 7.375v18.184c0 2.89-.02 5.375-.05 7.453a300.889 300.889 0 0 0-.055 4.152v7.199c0 1.547-.016 2.973-.051 4.282-.035 1.289-.051 2.25-.051 2.886-2.82-.066-5.621-.101-8.41-.101h-8.406a460.169 460.169 0 0 0-1.524-4.332c-.308-.914-.61-1.653-.902-2.22-.274-.57-.68-1.273-1.211-2.116-.535-.84-1.324-2.14-2.375-3.895-1.047-1.77-2.594-4.304-4.64-7.61a210.49 210.49 0 0 1-5.391-9.515l.101 15.528-.746 14.597c-.48 0-1.46.02-2.941.051-1.477.035-3 .07-4.567.105-1.547.036-2.672.122-3.379.258h-.695c-.242 0-.465.035-.672.102Zm74.692 0-2.22-.41c-.98-.156-2.323-.421-4.023-.8-1.687-.395-3.464-.8-5.34-1.211a325.936 325.936 0 0 1-5.261-1.266c-1.652-.43-2.977-.75-3.973-.953a20.48 20.48 0 0 0-.644-.207 10.05 10.05 0 0 0-.621-.234c0-.274-.016-.617-.051-1.031-.035-.43-.051-1.313-.051-2.657 0-1.34-.035-3.488-.102-6.449 4.934-.137 8.684-.238 11.243-.309 2.582-.066 4.379-.12 5.39-.152a78.003 78.003 0 0 1 1.989-.055c.328 0 .671-.03 1.03-.101l.31-4.23-.102-.438-11.403-10.758L221 100.79l-2.113-2.656-.106-.102.207-3.379c.43-1.273.785-2.554 1.059-3.843.273-1.309.523-2.633.746-3.973.14-.707.328-1.813.57-3.328.258-1.512.524-3.008.797-4.488.278-1.477.45-2.5.516-3.07l1.293-8.458 28.629-5.804a61.37 61.37 0 0 1 1.574 5.234c.496 1.945.953 3.828 1.367 5.652-.707.274-1.258.504-1.652.696-.38.171-.938.472-1.676.902-.738.414-1.996 1.187-3.766 2.32a977.387 977.387 0 0 1-7.894 4.953c-.223.98-.582 2.192-1.082 3.637a364.04 364.04 0 0 1-1.418 4.18 72.123 72.123 0 0 1-1.211 3.379c.43.222 1.363.859 2.808 1.906a678.601 678.601 0 0 1 5.16 3.793 331.944 331.944 0 0 0 6.192 4.437 377.736 377.736 0 0 0 5.7 3.918l1.702.957a204.821 204.821 0 0 0-2.425 10.985 831.215 831.215 0 0 1-2.22 11.093c-1.132.637-2.655 1.356-4.566 2.165-1.89.808-3.789 1.601-5.699 2.375-1.89.773-3.437 1.476-4.64 2.113Zm0 0"/><path d="M88.536 140.29c-1.063-3.242-1.899-5.664-2.5-7.281a346.153 346.153 0 0 0-1.313-3.547 34.263 34.263 0 0 0-.734-1.797c-.211-.457-.492-1.055-.844-1.797-.355-.738-.867-1.93-1.531-3.578-.668-1.656-1.637-4.07-2.906-7.25 0-.063-.04-.094-.11-.094-1.336.418-2.726.79-4.172 1.11-1.437.312-2.867.609-4.28.89a142.76 142.76 0 0 1-.532 9.781 560.385 560.385 0 0 1-.938 9.875c-.074-.074-.199-.109-.375-.109a.989.989 0 0 1-.468-.11c-.563-.144-1.391-.234-2.485-.265a120.674 120.674 0 0 0-3.437-.047c-1.836 0-3.196.04-4.078.11-.875.062-1.735.199-2.579.406-.843.218-2.183.504-4.015.86l-.313-5.5c.207-4.927.364-10.349.47-16.267.1-5.914.155-11.656.155-17.218 0-.844-.015-2.25-.047-4.219-.03-1.977-.07-4.195-.109-6.656-.031-2.469-.07-4.914-.11-7.344-.03-2.438-.07-4.535-.109-6.297a249.186 249.186 0 0 1-.047-3.484l3.485-.625 20.078-2.547a32.553 32.553 0 0 1 5.75.11c1.937.21 3.86.421 5.766.64 3.164.344 5.91 1.242 8.234 2.687 2.32 1.45 4.238 3.215 5.75 5.297 1.52 2.074 2.664 4.219 3.437 6.438.782 2.21 1.207 4.23 1.282 6.062l-4.86 12.36a24.291 24.291 0 0 1-5.078 4.234c1.758 5.98 3.188 10.79 4.281 14.422a654.674 654.674 0 0 0 2.579 8.39 423.799 423.799 0 0 0 1.484 4.547c.351 1.055.633 2.04.844 2.953-1.125.43-2.711.903-4.75 1.422a764.563 764.563 0 0 0-6.032 1.594c-1.968.531-3.515 1.11-4.64 1.734-.063 0-.094.016-.094.047 0 .04-.039.063-.11.063ZM69.3 103.852a83.107 83.107 0 0 1 7.032-3.125 377.376 377.376 0 0 0 7.234-2.906 36.134 36.134 0 0 0 2.312-3.484 35.233 35.233 0 0 0 1.907-3.703c-.7-.977-1.418-1.977-2.157-3-.742-1.02-1.5-2.024-2.28-3.016-.493.074-1.247.148-2.266.219a49.443 49.443 0 0 1-3.016.093c-1.762 0-3.61-.015-5.547-.046-1.93-.032-3.602-.082-5.016-.157.145.774.391 2.903.735 6.391.351 3.492.707 7.734 1.062 12.734Zm62.96 32.422-4.328-.422-5.703-.203-2.75-1.375-3.062-3.062-1.375-2.219-1.797-7.078v-.11c-.493-2.882-.86-5.312-1.11-7.28a187.846 187.846 0 0 1-.578-5.282 74.213 74.213 0 0 1-.265-4.656 265.707 265.707 0 0 1-.047-5.39c0-.915.015-2.024.047-3.329.039-1.3.128-3.094.265-5.375.145-2.29.285-5.27.422-8.938v-.109a.798.798 0 0 0 .11-.36c0-.113.035-.202.109-.265v-.11c1.195.075 2.39.165 3.578.266 1.195.106 2.363.196 3.5.266 1.758.074 3.484.164 5.172.266 1.687.105 3.41.195 5.172.265v.094c-.075.074-.11.2-.11.375v.156l-.312 11.094c-.074 2.398-.149 4.809-.219 7.234a83.878 83.878 0 0 1-.516 7.344c-.21 1.969-.421 3.871-.64 5.703-.211 1.836-.418 4.156-.625 6.969l3.797 5.281c2.039 0 4.05-.101 6.03-.312l3.907-.625 1.688-4.766.11-.844.624-6.015-.11-15.75-1.359-8.125c0-1.063-.039-2.117-.11-3.172a41.532 41.532 0 0 0-.327-3.063l3.078-.64c2.039-.344 3.8-.582 5.281-.719 1.477-.145 3.164-.219 5.063-.219l.64 4.219c.344 2.398.567 4.055.672 4.969.113.918.172 1.449.172 1.593v.157c0-.04.016.203.047.734.039.524.164 1.7.375 3.531.207 2.887.379 5.809.516 8.766.144 2.96.218 5.918.218 8.875 0 0-.164.637-.484 1.906a473.082 473.082 0 0 0-1.047 4.344 63.568 63.568 0 0 1-1.11 4.11l-.843 2.64a167.283 167.283 0 0 0-2.64 3.281c-.493.625-.9 1.078-1.22 1.36-.312.28-.808.586-1.484.906-.668.312-1.808.93-3.422 1.844-2.824.21-5.242.402-7.25.578-2 .18-3.918.406-5.75.687Zm31.904.11c0-3.946-.055-8.579-.156-13.891a847.147 847.147 0 0 1-.156-16.75c0-4.781.066-9.566.203-14.36.144-4.788.394-9.44.75-13.953 1.05 0 2.437.06 4.156.172 1.727.106 3.488.211 5.281.313 1.801.105 3.367.21 4.703.312 1.344.106 2.157.157 2.438.157l.219.312 13.937 31.484 1.594 3.172c.062-7.394.129-13.238.203-17.53.07-4.302.11-7.505.11-9.61v-6.985c.413 0 1.452.059 3.109.172 1.656.106 3.43.211 5.328.313 1.906.105 3.351.195 4.344.265 0 .625-.024 1.965-.063 4.016a494.202 494.202 0 0 0-.047 7.39v18.173c0 2.887-.023 5.372-.062 7.454a344.15 344.15 0 0 0-.047 4.156v7.186c0 1.555-.016 2.98-.047 4.282a133.827 133.827 0 0 0-.047 2.906c-2.824-.07-5.625-.11-8.406-.11h-8.39a479.46 479.46 0 0 1-1.548-4.328c-.312-.914-.609-1.656-.89-2.218a26.055 26.055 0 0 0-1.219-2.11 414.648 414.648 0 0 1-2.375-3.906 835.329 835.329 0 0 0-4.64-7.61 201.353 201.353 0 0 1-5.391-9.515l.11 15.531-.75 14.578c-.493 0-1.477.024-2.954.063-1.48.031-2.996.07-4.547.11-1.543.03-2.668.116-3.375.25h-.687c-.25 0-.48.038-.688.109Zm74.681 0-2.218-.422c-.98-.145-2.32-.41-4.016-.797a2150.17 2150.17 0 0 0-5.328-1.203 236.36 236.36 0 0 1-5.281-1.266c-1.657-.426-2.98-.742-3.97-.953-.21-.07-.417-.145-.624-.219-.211-.07-.422-.144-.64-.219 0-.28-.016-.628-.048-1.046-.03-.426-.046-1.305-.046-2.641 0-1.344-.04-3.492-.11-6.453a6123.283 6123.283 0 0 0 16.64-.469 84.514 84.514 0 0 1 2-.047c.321 0 .657-.035 1-.11l.329-4.234-.11-.421-11.406-10.766-4.015-4.328-2.11-2.64-.11-.11.204-3.39c.426-1.259.781-2.54 1.063-3.845.28-1.3.523-2.625.734-3.968.144-.707.336-1.817.578-3.328.25-1.508.516-3.004.797-4.485.281-1.476.457-2.5.531-3.062l1.266-8.453 28.625-5.813c.562 1.555 1.086 3.297 1.578 5.234.5 1.938.96 3.82 1.39 5.641-.71.281-1.257.512-1.64.688-.387.18-.95.48-1.688.906-.742.418-1.992 1.195-3.75 2.328a691.503 691.503 0 0 1-7.921 4.953c-.22.992-.575 2.211-1.063 3.656-.492 1.438-.965 2.828-1.422 4.172-.46 1.336-.867 2.461-1.219 3.375.426.211 1.36.844 2.797 1.906 1.446 1.055 3.172 2.32 5.172 3.797a288.79 288.79 0 0 0 6.188 4.438 301.348 301.348 0 0 0 5.703 3.906l1.687.953a206.347 206.347 0 0 0-2.437 11 787.17 787.17 0 0 1-2.203 11.078c-1.125.637-2.641 1.36-4.547 2.172a590.523 590.523 0 0 1-5.719 2.375c-1.898.774-3.445 1.477-4.64 2.11Zm0 0"/><path fill="#f1f1f1" d="m163.334 254.775-8.422-4.343-2.032-4.782-1.515-29.422 1.515-4.875 4.954-4.687c4.019-.414 7.55-.816 10.593-1.203 3.04-.383 6.364-.664 9.969-.844l6.734 3.453c.227.418.477.836.75 1.25.27.406.52.852.75 1.328l3.282 5.313c.351 2.719.644 5.043.875 6.969.238 1.918.43 3.687.578 5.312.156 1.617.273 3.371.36 5.266.093 1.886.194 4.133.312 6.734l.172 4.781-2.391 6.032-2.656 1.5c-.825.125-2.274.277-4.344.453-2.063.18-4.367.355-6.906.531-2.543.18-4.965.387-7.266.625-2.305.23-4.074.434-5.312.61Zm1.937-11.515 5.672-.625 4.266-.625 3.796-.703-.171-1.86c-1-10.75-1.446-17.363-1.329-19.844v-.265c0-.063-.152-.27-.453-.625a26.79 26.79 0 0 1-.875-1.11c-.293-.382-.437-.578-.437-.578l-11.875 3.282-.094.093-.172 5.047c0 .531.055 1.61.172 3.235.113 1.625.242 3.445.39 5.453.157 2 .305 3.812.454 5.437.144 1.625.304 2.68.484 3.156a.273.273 0 0 1 .094.22.79.79 0 0 0 .078.312Zm32.519 11.515a563.9 563.9 0 0 0-.141-11.656c-.086-4.457-.125-9.14-.125-14.047 0-4.008.055-8.02.172-12.031.125-4.02.332-7.922.625-11.703.883 0 2.05.047 3.5.14 1.445.086 2.922.172 4.422.266 1.508.086 2.828.172 3.953.266 1.125.086 1.805.125 2.047.125l.172.265 11.687 26.407 1.328 2.656c.063-6.207.125-11.113.188-14.719.062-3.601.094-6.289.094-8.062v-5.844c.351 0 1.222.047 2.609.14 1.383.086 2.875.172 4.469.266 1.593.086 2.804.156 3.64.219 0 .531-.015 1.656-.047 3.375-.03 1.71-.046 3.777-.046 6.203v15.234c0 2.418-.016 4.5-.047 6.25a242.645 242.645 0 0 0-.047 3.485v6.03c0 1.305-.016 2.5-.047 3.594a118.433 118.433 0 0 0-.031 2.437 266.92 266.92 0 0 0-7.047-.094h-7.047c-.594-1.656-1.027-2.863-1.297-3.625-.262-.77-.512-1.39-.75-1.859-.23-.476-.57-1.07-1.016-1.781a247.56 247.56 0 0 1-1.984-3.281 570.713 570.713 0 0 0-3.906-6.375 172.966 172.966 0 0 1-4.516-7.985l.094 13.031-.625 12.235c-.418 0-1.246.015-2.484.047-1.243.023-2.512.047-3.813.078-1.293.031-2.234.105-2.828.219h-.578c-.211 0-.403.03-.578.093Zm0 0"/></svg>