<?xml version="1.0" encoding="UTF-8"?>
<svg id="Calque_1" xmlns="http://www.w3.org/2000/svg" version="1.1" viewBox="0 0 224.9 169.7">
  <!-- Generator: Adobe Illustrator 29.3.1, SVG Export Plug-In . SVG Version: 2.1.0 Build 151)  -->
  <defs>
    <style>
      .st0 {
        fill: #010200;
      }
    </style>
  </defs>
  <g>
    <polygon class="st0" points="33.8 86 33.8 137.7 63.5 137.7 33.9 86 33.8 86"/>
    <polygon class="st0" points="191.1 86 191.1 137.7 161.5 137.7 191 86 191.1 86"/>
    <polygon class="st0" points="191.1 2.4 186.9 0 130 99 73.3 1.4 33.8 1.4 111.6 137.6 111.6 137.6 111.7 137.7 113.9 137.7 191.1 2.4 191.1 2.4 191.1 2.4"/>
  </g>
  <g>
    <path class="st0" d="M0,156.1h3.9l3.8,9.4,3.7-9.4h3.9v13.6h-3.3v-8.2l-3,8.2h-2.7l-3-8.2v8.2H0v-13.6Z"/>
    <path class="st0" d="M44.5,156.1h3.4l-4.6,13.6h-4l-4.6-13.6h3.4l3.2,10.3,3.2-10.3Z"/>
    <path class="st0" d="M94.3,160.4h-3.8c-.5-.9-1.5-1.4-2.8-1.4-2.2,0-3.7,1.5-3.7,3.8s1.5,3.9,4,3.9,2.9-.9,3.4-2.4h-5v-2.4h8.1v3c-.7,2.3-3.1,4.6-6.8,4.6s-7.2-2.8-7.2-6.8,3-6.8,7.2-6.8,5.8,1.6,6.6,4.4Z"/>
    <path class="st0" d="M121.1,156.1c3.3,0,5,1.9,5,4.3s-.9,3.3-3,3.9l3.1,5.4h-3.7l-2.8-5.1h-.8v5.1h-3.3v-13.6h5.6ZM120.9,158.8h-2.1v3.4h2.1c1.2,0,1.8-.6,1.8-1.7s-.6-1.7-1.8-1.7Z"/>
    <path class="st0" d="M153.6,169.7c-3.9,0-7-2.8-7-6.8s3.1-6.8,7-6.8,7,2.8,7,6.8-3.1,6.8-7,6.8ZM153.6,166.7c2.2,0,3.6-1.5,3.6-3.9s-1.4-3.9-3.6-3.9-3.6,1.5-3.6,3.9,1.4,3.9,3.6,3.9Z"/>
    <path class="st0" d="M181.1,156.1h3.3v8.1c0,1.6.8,2.5,2.4,2.5s2.4-.9,2.4-2.5v-8.1h3.3v8c0,3.7-2.6,5.6-5.8,5.6s-5.6-1.8-5.6-5.6v-8Z"/>
    <path class="st0" d="M219.9,164.8h-2.1v4.9h-3.3v-13.6h5.4c3.3,0,5,1.9,5,4.4s-1.5,4.3-5,4.3ZM219.7,162.2c1.3,0,1.9-.7,1.9-1.7s-.6-1.7-1.9-1.7h-1.8v3.4h1.8Z"/>
  </g>
</svg>