<?xml version="1.0" encoding="UTF-8" standalone="no"?>
<!-- Created with Inkscape (http://www.inkscape.org/) -->

<svg
   version="1.1"
   id="svg1"
   width="960.65198"
   height="329.28137"
   viewBox="0 0 960.65198 329.28122"
   xmlns="http://www.w3.org/2000/svg"
   xmlns:svg="http://www.w3.org/2000/svg">
  <defs
     id="defs1" />
  <g
     id="g1">
    <g
       id="group-R5">
      <path
         id="path2"
         d="m 337.42732,172.15402 c 0,-26.436 -16.392,-49.548 -41.05866,-58.54133 1.084,-5.572 1.65067,-11.14534 1.65067,-16.949336 0,-49.142665 -39.98267,-89.1239976 -89.132,-89.1239976 -28.70933,0 -55.41667,13.7679996 -72.19893,36.9679986 -8.2516,-6.401333 -18.3844,-9.909333 -28.95574,-9.909333 -26.085996,0 -47.308929,21.222666 -47.308929,47.307999 0,5.764 1.028667,11.281333 2.957867,16.488 -24.522933,8.849329 -41.384932,32.502669 -41.384932,58.771999 0,26.572 16.471333,49.788 41.249465,58.7172 -1.052133,5.50934 -1.626533,11.19374 -1.626533,16.9416 0,49.0308 39.886402,88.9172 88.917202,88.9172 28.77986,0 55.47186,-13.824 72.15853,-37.11973 8.30666,6.52133 18.464,10.10093 28.996,10.10093 26.08533,0 47.308,-21.21453 47.308,-47.30093 0,-5.76413 -1.028,-11.28813 -2.95734,-16.4948 24.52267,-8.84173 41.38533,-32.50427 41.38533,-58.77347"
         style="fill:#ffffff;fill-opacity:1;fill-rule:nonzero;stroke:none;stroke-width:0.133333" />
      <path
         id="path3"
         d="m 146.0092,142.85936 69.01946,31.46533 69.63867,-61.016 c 1.008,-5.03333 1.5,-10.052 1.5,-15.304003 0,-42.930665 -34.92,-77.858664 -77.852,-77.858664 -25.68267,0 -49.63733,12.645333 -64.19787,33.849332 l -11.5828,60.094675 13.47454,28.76933"
         style="fill:#fac10e;fill-opacity:1;fill-rule:nonzero;stroke:none;stroke-width:0.133333" />
      <path
         id="path4"
         d="m 74.564398,215.94882 c -1.0084,5.03334 -1.524,10.25467 -1.524,15.53694 0,43.04173 35.021862,78.06303 78.070802,78.06303 25.89346,0 49.96546,-12.76304 64.50279,-34.18544 l 11.496,-59.89066 -15.34133,-29.31733 -69.29386,-31.58267 -67.910402,61.37613"
         style="fill:#46c0b3;fill-opacity:1;fill-rule:nonzero;stroke:none;stroke-width:0.133333" />
      <path
         id="path5"
         d="m 74.127331,96.504687 47.300529,11.168003 10.3636,-53.778668 c -6.4636,-4.94 -14.4432,-7.644 -22.64946,-7.644 -20.555203,0 -37.272936,16.725333 -37.272936,37.279999 0,4.541333 0.757867,8.894666 2.258267,12.974666"
         style="fill:#ef289b;fill-opacity:1;fill-rule:nonzero;stroke:none;stroke-width:0.133333" />
      <path
         id="path6"
         d="m 70.021198,107.77003 c -21.133333,7.00266 -35.826613,27.25999 -35.826613,49.54399 0,21.696 13.41928,41.07067 33.559946,48.73734 l 66.362929,-59.98534 -12.1848,-26.03333 -51.911462,-12.26266"
         style="fill:#58a6e0;fill-opacity:1;fill-rule:nonzero;stroke:none;stroke-width:0.133333" />
      <path
         id="path7"
         d="m 227.74733,275.36175 c 6.48666,4.98707 14.42666,7.7068 22.532,7.7068 20.55466,0 37.27333,-16.71866 37.27333,-37.27346 0,-4.53333 -0.75867,-8.8864 -2.25867,-12.96667 l -47.26133,-11.05826 -10.28533,53.59159"
         style="fill:#90d123;fill-opacity:1;fill-rule:nonzero;stroke:none;stroke-width:0.133333" />
      <path
         id="path8"
         d="m 237.36333,209.38056 52.02933,12.16933 c 21.14133,-6.98653 35.83466,-27.2532 35.83466,-49.54253 0,-21.65734 -13.45066,-41.00934 -33.63066,-48.65334 l -68.052,59.61867 13.81867,26.40787"
         style="fill:#405fb5;fill-opacity:1;fill-rule:nonzero;stroke:none;stroke-width:0.133333" />
      <path
         id="path9"
         d="m 457.15932,181.11269 c 0,-13.32933 -2.14,-22.74667 -6.412,-28.25467 -4.27466,-5.504 -11.22933,-8.25866 -20.864,-8.25866 -9.63733,0 -16.88,2.90133 -21.73333,8.69466 -4.856,5.796 -7.35467,15.06934 -7.49733,27.81867 z m 5.868,47.16 6.30267,-0.6504 0.43466,12.8224 c -16.51733,2.31453 -30.64399,3.476 -42.37999,3.476 -15.648,0 -26.732,-4.5256 -33.252,-13.5828 -6.52,-9.0532 -9.78,-23.1464 -9.78,-42.27053 0,-38.10534 15.13866,-57.15867 45.42266,-57.15867 14.632,0 25.57067,4.09467 32.81733,12.27867 7.244,8.18666 10.86667,21.048 10.86667,38.576 l -0.86933,12.388 h -71.72 c 0,12.0292 2.17333,20.93853 6.52,26.73186 4.34667,5.79734 11.916,8.69374 22.71067,8.69374 10.79333,0 21.76799,-0.43494 32.92666,-1.30427"
         style="fill:#1c1c1f;fill-opacity:1;fill-rule:nonzero;stroke:none;stroke-width:0.133333" />
      <path
         id="path10"
         d="M 496.18865,243.08216 V 100.03535 h 16.3 v 143.04681 h -16.3"
         style="fill:#1c1c1f;fill-opacity:1;fill-rule:nonzero;stroke:none;stroke-width:0.133333" />
      <path
         id="path11"
         d="m 548.19932,210.23522 c 0,13.33227 5.50533,19.9948 16.51733,19.9948 9.852,0 19.56,-1.664 29.12267,-4.99893 l 4.99866,-1.7396 v -35.86013 l -32.16533,3.044 c -6.52,0.58026 -11.22933,2.464 -14.12666,5.64946 -2.9,3.18907 -4.34667,7.824 -4.34667,13.9104 z m 66.93866,-44.33586 v 54.81453 c 0,5.43227 13.52667,5.21613 13.52667,5.21613 l -0.832,14.40107 c -11.44667,0 -20.92533,0.94947 -26.62,-4.55573 -13.04,5.7948 -26.064,8.14533 -39.104,8.14533 -9.99733,0 -17.604,-2.8256 -22.82,-8.47453 -5.216,-5.65107 -7.824,-13.764 -7.824,-24.34267 0,-10.57507 2.67867,-18.36413 8.04134,-23.3628 5.35866,-4.99867 13.764,-8.07467 25.21066,-9.236 l 34.12133,-3.26133 v -9.344 c 0,-7.38934 -1.596,-12.67734 -4.78133,-15.86667 -3.18933,-3.184 -7.53467,-4.78133 -13.04,-4.78133 l -42.82666,0.036 v -14.37867 h 41.74 c 12.31333,0 21.26133,2.82533 26.84133,8.47467 5.576,5.65066 8.36666,14.49066 8.36666,26.516"
         style="fill:#1c1c1f;fill-opacity:1;fill-rule:nonzero;stroke:none;stroke-width:0.133333" />
      <path
         id="path12"
         d="m 678.75665,145.46869 c -15.79467,0 -23.68933,5.508 -23.68933,16.51733 0,5.07467 1.80933,8.66 5.43333,10.75734 3.62,2.104 11.87867,4.27733 24.776,6.52133 12.89467,2.248 22.02133,5.4 27.384,9.45333 5.35866,4.05894 8.04133,11.6652 8.04133,22.81987 0,11.1588 -3.58667,19.34267 -10.75866,24.5588 -7.172,5.21613 -17.64134,7.824 -31.404,7.824 -8.98534,0 -38.96534,-3.3256 -38.96534,-3.3256 l 0.86934,-14.12653 c 17.232,1.66253 29.69066,2.89066 38.096,2.89066 8.40133,0 14.812,-1.33853 19.23333,-4.01986 4.41867,-2.68014 6.62933,-7.17187 6.62933,-13.4744 0,-6.3032 -1.88533,-10.57507 -5.65066,-12.82294 -3.76934,-2.24426 -12.028,-4.3812 -24.776,-6.41093 -12.752,-2.0276 -21.808,-4.99973 -27.16667,-8.91173 -5.36133,-3.912 -8.04133,-11.15467 -8.04133,-21.73334 0,-10.57466 3.728,-18.39866 11.192,-23.47066 7.46133,-5.07067 16.76933,-7.60667 27.928,-7.60667 8.836,0 39.50266,2.24667 39.50266,2.24667 v 14.212 c -16.132,-0.736 -29.36266,-1.89867 -38.63333,-1.89867"
         style="fill:#1c1c1f;fill-opacity:1;fill-rule:nonzero;stroke:none;stroke-width:0.133333" />
      <path
         id="path13"
         d="m 799.31665,147.20736 h -34.556 v 51.94253 c 0,12.464 0.904,20.64787 2.71733,24.5588 1.80933,3.9136 6.11867,5.86827 12.93067,5.86827 l 19.34266,-1.30427 1.088,13.47453 c -9.70933,1.5932 -17.09866,2.39067 -22.16933,2.39067 -11.30133,0 -19.12533,-2.74893 -23.472,-8.2584 -4.34667,-5.50413 -6.52,-16.00827 -6.52,-31.51347 v -57.15866 h -15.43067 v -14.12667 h 15.43067 V 99.828687 h 16.08267 v 33.252003 h 34.556 v 14.12667"
         style="fill:#1c1c1f;fill-opacity:1;fill-rule:nonzero;stroke:none;stroke-width:0.133333" />
      <path
         id="path14"
         d="M 821.97798,243.08216 V 133.08069 h 16.3 v 110.00147 z m 0,-123.88413 v -18.90801 h 16.3 v 18.90801 h -16.3"
         style="fill:#1c1c1f;fill-opacity:1;fill-rule:nonzero;stroke:none;stroke-width:0.133333" />
      <path
         id="path15"
         d="m 908.88064,130.90869 c 4.78134,0 12.89467,0.86933 24.34134,2.60667 l 5.216,0.65333 -0.652,13.256 c -11.59334,-1.30267 -20.14134,-1.956 -25.64534,-1.956 -12.31733,0 -20.684,2.93467 -25.10266,8.80267 -4.42134,5.868 -6.628,16.73466 -6.628,32.6 0,15.86546 2.06533,26.916 6.19333,33.14413 4.12933,6.2292 12.71467,9.34373 25.75467,9.34373 l 25.64533,-1.95466 0.652,13.47346 c -13.47467,2.028 -23.54667,3.04267 -30.20933,3.04267 -16.952,0 -28.65467,-4.34533 -35.1,-13.04013 -6.448,-8.6932 -9.67067,-23.36254 -9.67067,-44.0092 0,-20.64667 3.47733,-35.13334 10.432,-43.46667 6.95467,-8.32933 18.544,-12.496 34.77333,-12.496"
         style="fill:#1c1c1f;fill-opacity:1;fill-rule:nonzero;stroke:none;stroke-width:0.133333" />
    </g>
  </g>
</svg>
