<?xml version="1.0" encoding="UTF-8" standalone="no"?>
<!-- Generator: Adobe Illustrator 22.1.0, SVG Export Plug-In . SVG Version: 6.00 Build 0)  -->

<svg
   xmlns:dc="http://purl.org/dc/elements/1.1/"
   xmlns:cc="http://creativecommons.org/ns#"
   xmlns:rdf="http://www.w3.org/1999/02/22-rdf-syntax-ns#"
   xmlns:svg="http://www.w3.org/2000/svg"
   xmlns="http://www.w3.org/2000/svg"
   xmlns:sodipodi="http://sodipodi.sourceforge.net/DTD/sodipodi-0.dtd"
   xmlns:inkscape="http://www.inkscape.org/namespaces/inkscape"
   version="1.1"
   id="Calque_1"
   x="0px"
   y="0px"
   viewBox="0 0 2267.7 1133.9"
   style="enable-background:new 0 0 2267.7 1133.9;"
   xml:space="preserve"
   sodipodi:docname="logo_maxds.svg"
   inkscape:version="0.92.4 (5da689c313, 2019-01-14)"><metadata
   id="metadata81"><rdf:RDF><cc:Work
       rdf:about=""><dc:format>image/svg+xml</dc:format><dc:type
         rdf:resource="http://purl.org/dc/dcmitype/StillImage" /></cc:Work></rdf:RDF></metadata><defs
   id="defs79" /><sodipodi:namedview
   pagecolor="#ffffff"
   bordercolor="#666666"
   borderopacity="1"
   objecttolerance="10"
   gridtolerance="10"
   guidetolerance="10"
   inkscape:pageopacity="0"
   inkscape:pageshadow="2"
   inkscape:window-width="1850"
   inkscape:window-height="1016"
   id="namedview77"
   showgrid="false"
   inkscape:zoom="0.3968779"
   inkscape:cx="960.10834"
   inkscape:cy="534.23718"
   inkscape:window-x="1990"
   inkscape:window-y="27"
   inkscape:window-maximized="1"
   inkscape:current-layer="Calque_1"
   showguides="true"
   inkscape:guide-bbox="true" />
<style
   type="text/css"
   id="style2">
	.st0{fill:#F89730;}
	.st1{fill:none;}
	.st2{fill:#EE2F33;}
	.st3{fill:#F2642A;}
</style>

























<g
   id="g74"
   transform="translate(-5.1500244,128.00001)">
	<path
   class="st3"
   d="M 1424.7,613 1542.9,495.3 1297.5,250.7 c -49,-50.4 -117.6,-81.7 -193.4,-81.7 -149,0 -269.8,120.8 -269.8,269.8 0,149 120.7,269.9 269.7,269.9 77.1,0 146.6,-32.3 195.7,-84.1 l 49.6,-49.8 -7.8,-7.8 v 0 l -55,-55 v 0 l -55.2,-55.2 -54.9,55.1 0.2,0.2 h -0.6 c -40.2,39.6 -104.9,39.4 -144.8,-0.6 -40.1,-40.1 -40.1,-105.2 0,-145.4 39.9,-39.9 104.3,-40.1 144.5,-0.8 h 0.3 l 147.1,146.6 z"
   id="path54"
   inkscape:connector-curvature="0"
   style="fill:#f2642a" />
	<path
   class="st0"
   d="M 2190,634.3 2071.8,516.1 c -18.3,16.8 -42.7,27 -69.4,27 -55.5,0 -100.7,-44 -102.7,-99 0,-2.1 0.1,-4.2 0.1,-6.4 0,-0.9 0,-1.8 0,-2.7 2.8,-54.3 47.7,-97.5 102.7,-97.5 24.8,0 47.5,8.8 65.3,23.4 L 2186,242.6 c -48.2,-44.7 -112.7,-72.1 -183.6,-72.1 -71.5,0 -136.6,27.8 -184.9,73.3 -48.6,-47 -114.7,-75.9 -187.6,-75.9 -70.9,0 -135.4,27.4 -183.6,72.1 l 118.3,118.3 c 17.8,-14.6 40.5,-23.4 65.3,-23.4 55.5,0 100.7,44 102.7,99 0,2.1 -0.1,4.2 -0.1,6.4 0,0.9 0,1.8 0,2.7 -2.8,54.3 -47.7,97.5 -102.7,97.5 -26.8,0 -51.1,-10.2 -69.4,-27 l -118.2,118.2 c 48.6,47 114.7,75.9 187.6,75.9 71.5,0 136.6,-27.8 184.9,-73.3 48.6,47 114.7,75.9 187.6,75.9 73,-0.1 139.1,-29 187.7,-75.9 z"
   id="path56"
   inkscape:connector-curvature="0"
   style="fill:#f89730" />
	<g
   id="g72">
		<path
   class="st2"
   d="m 882.1,285.3 c -1.2,1.8 -2.4,3.6 -3.6,5.4 1.1,-1.8 2.3,-3.6 3.6,-5.4 z"
   id="path58"
   inkscape:connector-curvature="0"
   style="fill:#ee2f33" />
		<path
   class="st2"
   d="m 887.8,277.4 c -1.9,2.6 -3.8,5.2 -5.7,7.9 1.8,-2.7 3.7,-5.3 5.7,-7.9 z"
   id="path60"
   inkscape:connector-curvature="0"
   style="fill:#ee2f33" />
		<path
   class="st2"
   d="m 904.2,257.4 c -3.6,4 -7.1,8.1 -10.5,12.3 3.4,-4.2 6.9,-8.3 10.5,-12.3 z"
   id="path62"
   inkscape:connector-curvature="0"
   style="fill:#ee2f33" />
		<path
   class="st2"
   d="m 891.7,272.3 c -1.3,1.7 -2.7,3.4 -3.9,5.1 1.2,-1.7 2.6,-3.4 3.9,-5.1 z"
   id="path64"
   inkscape:connector-curvature="0"
   style="fill:#ee2f33" />
		<path
   class="st2"
   d="m 831.8,323.9 c 14.9,-35.2 36.2,-66.8 63.3,-93.9 1.3,-1.3 2.6,-2.5 3.9,-3.8 -46.1,-36.6 -104.4,-58.5 -167.8,-58.5 -72.5,0 -138.3,28.6 -186.7,75 C 496,196.3 430.3,167.7 357.8,167.7 208.8,167.8 88,288.6 88,437.6 c 0,3.5 0.1,7.1 0.2,10.6 v 260.7 h 167 v -21.6 -249.4 -1 0 c -0.1,-1.6 -0.1,-3.2 -0.1,-4.8 0,-56.8 46,-102.8 102.8,-102.8 56.8,0 102.8,46 102.8,102.8 0,1.6 0,3.2 -0.1,4.8 v 0 272 H 628 v -272 c -0.1,-1.6 0,-3.2 0,-4.8 0,-56.8 46.5,-102.8 103.3,-102.8 35.1,0 66.1,17.6 84.6,44.4 3.8,-17 9.1,-33.6 15.9,-49.8 z"
   id="path66"
   inkscape:connector-curvature="0"
   style="fill:#ee2f33" />
		<path
   class="st2"
   d="m 834.2,436.9 c 0.3,-43.5 10.9,-84.6 29.5,-120.8 -18.6,36.2 -29.2,77.3 -29.5,120.8 z"
   id="path68"
   inkscape:connector-curvature="0"
   style="fill:#ee2f33" />
		<path
   class="st2"
   d="m 878.4,290.7 c -4.8,7.2 -9.2,14.7 -13.3,22.4 4.1,-7.7 8.6,-15.2 13.3,-22.4 z"
   id="path70"
   inkscape:connector-curvature="0"
   style="fill:#ee2f33" />
	</g>
</g>
<path
   inkscape:connector-curvature="0"
   class="st0"
   d="m 2226.5673,240.5437 c -4.4,-1.8 -9.3,-2.8 -14.3,-2.8 -5.1,0 -9.9,0.9 -14.3,2.8 -4.4,1.8 -8.4,4.5 -11.7,7.7 -3.3,3.3 -5.9,7.3 -7.8,11.8 -1.9,4.5 -2.8,9.5 -2.8,14.7 0,5.3 1,10.2 2.8,14.7 1.9,4.5 4.5,8.5 7.8,11.7 3.3,3.3 7.2,5.9 11.7,7.7 4.4,1.8 9.3,2.8 14.3,2.8 5.1,0 9.9,-0.9 14.3,-2.8 4.4,-1.8 8.4,-4.4 11.7,-7.7 3.3,-3.3 5.9,-7.2 7.8,-11.7 1.9,-4.5 2.8,-9.5 2.8,-14.7 0,-5.3 -1,-10.2 -2.8,-14.7 -1.9,-4.5 -4.5,-8.5 -7.8,-11.8 -3.3,-3.3 -7.2,-5.9 -11.7,-7.7 z m 15.1,34.2 c 0,4.4 -0.7,8.5 -2.2,12.2 -1.5,3.7 -3.6,7 -6.2,9.7 -2.6,2.7 -5.8,4.9 -9.4,6.4 -3.6,1.5 -7.5,2.3 -11.7,2.3 -4.2,0 -8.1,-0.8 -11.7,-2.3 -3.6,-1.5 -6.7,-3.7 -9.4,-6.4 -2.6,-2.7 -4.7,-6 -6.2,-9.7 -1.5,-3.7 -2.2,-7.9 -2.2,-12.2 0,-4.4 0.7,-8.5 2.2,-12.2 1.5,-3.7 3.5,-7 6.2,-9.7 2.6,-2.7 5.8,-4.9 9.4,-6.4 3.6,-1.5 7.5,-2.3 11.7,-2.3 4.2,0 8.1,0.8 11.7,2.3 3.6,1.5 6.7,3.7 9.4,6.4 2.6,2.7 4.7,6 6.2,9.7 1.5,3.7 2.2,7.8 2.2,12.2 z"
   id="path4"
   style="fill:#f89730" /><path
   inkscape:connector-curvature="0"
   class="st0"
   d="m 2218.8673,277.6437 c -0.2,1.4 -0.8,3.5 -1.8,4.5 -1,1 -2.4,1.9 -4.2,1.9 -2.3,0 -4.1,-0.7 -5.3,-2.5 -1.3,-1.9 -1.9,-4.2 -1.9,-7.3 0,-3 0.6,-5.5 1.7,-7.4 1.1,-1.9 2.9,-2.7 5.3,-2.7 1.7,0 3,0.5 4,1.4 1,0.9 1.6,1.4 1.8,2.7 l 0.1,-0.3 h 13.8 c -0.3,-2.7 -1.1,-4.9 -2.3,-7.2 -1.2,-2.3 -3,-4 -5.3,-5.6 -1.6,-1.1 -3.4,-1.8 -5.5,-2.4 -2,-0.6 -4.2,-0.9 -6.6,-0.9 -3.2,0 -6.1,0.6 -8.8,1.7 -2.7,1.1 -5,2.7 -6.9,4.7 -1.9,2 -3.4,4.4 -4.5,7.1 -1.1,2.7 -1.6,5.7 -1.6,8.9 0,3.2 0.5,6.2 1.5,8.9 1,2.7 2.5,5.1 4.4,7.1 1.9,2 4.2,3.5 6.9,4.7 2.7,1.1 5.7,1.7 8.9,1.7 3.2,0 6,-0.4 8.2,-1.3 2.3,-0.8 4.4,-2.1 6.3,-3.9 1.5,-1.5 2.8,-3.2 3.8,-5.3 1,-2 1.6,-6.1 1.8,-8.5 v -2.3 h -14 z"
   id="path6"
   style="fill:#f89730" /></svg>