<svg viewBox="0 0 945.496 280.459" width="100" height="30" xmlns="http://www.w3.org/2000/svg">
    <path
        d="M477.448 228.696c8.956-29.699 17.441-58.219 26.045-86.739.589.118 1.296.118 1.885.236.236 2.003.472 4.007.59 6.01.353 13.789.589 27.46 1.06 41.248.236 6.01.59 12.021 5.303 16.97 1.297 1.415.943 7.072-.353 7.779-10.607 5.775-20.742 12.728-34.53 14.496zM510.092 109.43c.825 6.129 2.122 12.375 2.357 18.503.118 2.004-2.357 4.36-4.125 6.01-1.296 1.061-3.653 1.533-5.185 1.061-.825-.236-1.65-3.064-1.296-4.596 1.414-7.071 3.064-14.142 4.714-21.213 1.178.118 2.357.235 3.535.235zM476.858 138.893c4.832-3.653 10.489-5.657 16.617-4.596 2.122.354 3.654 3.418 5.421 5.303-2.474 2.24-5.185 6.364-7.542 6.246-5.068-.353-9.9-2.946-14.85-4.714.119-.707.236-1.532.354-2.239zM522.113 142.547c-2.71.589-5.539 1.65-8.25 1.414-1.414-.118-2.474-2.71-3.77-4.125 1.767-.943 3.535-2.946 5.067-2.71 2.475.353 4.714 2.12 7.07 3.3.119.589 0 1.413-.117 2.12z"
        fill="#ea5b0c" />
    <path
        d="M108.22 278.099c-30.64-6.482-49.497-17.088-71.417-40.423C13.468 212.927 1.565 186.293.15 155.652-1.145 127.839 5.808 112.4 24.9 99.908c10.37-6.717 16.617-8.367 29.462-7.896 9.428.354 11.903.943 18.857 4.36 17.913 8.84 32.88 28.874 39.244 52.68 2.121 8.014 2.003 26.634-.236 41.13-2.475 15.674-1.768 36.298 1.65 45.726 5.068 14.142 18.503 29.934 31.938 37.595 12.846 7.306 13.317 6.953-8.132 6.953-14.142-.236-22.156-.825-29.463-2.357z"
        fill="#e1e04e" />
    <path
        d="M169.739 268.435c-8.25-1.65-16.735-6.953-26.4-16.499-11.313-11.196-13.316-16.617-13.198-35.355.117-10.253.589-13.789 3.064-20.27 4.714-12.61 10.135-20.625 21.566-32.174 12.14-12.139 17.325-15.085 40.541-22.863 8.014-2.71 17.56-6.364 21.331-8.25 22.746-11.431 37.713-36.18 37.713-62.107 0-12.257 2.71-10.725 11.078 6.128 11.431 23.217 16.38 43.016 16.38 65.997 0 15.792-2.003 26.87-7.66 42.78-12.61 35.826-34.294 61.636-63.993 76.367-14.613 7.189-26.516 9.075-40.422 6.246z"
        fill="#dd7927" />
    <path
        d="M161.96 116.525c-15.438-2.475-25.338-7.542-46.55-24.16-20.389-15.91-28.874-19.445-47.141-20.27-15.32-.707-23.453 1.179-38.066 8.721-5.775 2.947-10.724 5.068-11.078 4.714-1.179-1.178 4.832-12.728 13.2-25.338 9.192-13.906 25.69-31.23 36.769-38.655 13.67-9.192 27.813-15.085 47.612-19.68 10.724-2.476 52.208-2.476 61.754 0 34.53 8.956 58.218 30.64 60.34 55.39.942 10.96-1.18 24.394-5.186 31.583-6.128 11.314-21.213 22.628-35.12 26.399-7.896 1.768-27.695 2.593-36.534 1.296z"
        fill="#8e3089" />
    <path
        d="M325.452 172.744h20.523c5.486 0 13.31 3.353 13.31 9.754 0 6.705-7.824 8.534-13.31 8.534h-20.523zm0-28.143h20.523c8.534 0 11.176 5.487 11.176 8.738 0 4.064-2.743 7.62-11.176 7.62h-20.523zm20.523-12.192h-33.731v71.12h33.73c14.733 0 26.62-5.08 26.62-20.93 0-4.47-3.048-13.309-11.38-15.849 6.605-2.946 9.246-8.23 9.246-13.716 0-14.325-10.464-20.625-24.485-20.625zM381.189 153.44v50.089h12.395v-26.416c0-9.245 5.994-12.7 12.496-12.7 4.064 0 6.401 1.118 8.941 3.251l5.588-10.77c-2.743-2.742-7.722-4.774-12.903-4.774-5.08 0-10.262.914-14.122 7.112l-.915-5.791zM474.923 182.904c1.93-20.624-8.534-30.987-25.298-30.987-16.256 0-26.619 10.972-26.619 26.212 0 16.053 10.262 26.72 27.534 26.72 7.62 0 16.255-2.64 21.539-8.127l-7.925-7.823c-2.845 2.946-8.84 4.673-13.411 4.673-8.738 0-14.123-4.47-14.935-10.668zm-38.912-10.261c1.829-6.503 7.315-9.754 14.02-9.754 7.112 0 12.192 3.251 13.005 9.754zM530.634 153.44v11.278h22.148l-23.977 33.63v5.18h42.164v-12.191h-23.267l23.063-32.004v-5.892zM580.264 132.41v71.119h12.395v-25.603c0-7.518 5.08-13.716 12.395-13.716 6.604 0 11.379 3.86 11.379 13.005v26.314h12.395v-26.416c0-14.732-6.3-24.384-20.523-24.384-5.69 0-11.176 1.728-15.646 7.519v-27.839zM692.957 185.343c-4.674 4.673-11.684 7.213-17.882 7.213-17.576 0-24.383-12.293-24.485-24.079-.102-11.887 7.315-24.688 24.485-24.688 6.198 0 12.497 2.133 17.17 6.705l8.941-8.636c-7.315-7.213-16.459-10.87-26.11-10.87-25.705 0-37.795 18.897-37.694 37.49.102 18.49 11.278 36.677 37.693 36.677 10.262 0 19.71-3.353 27.026-10.567zM748.548 148.056c18.694 0 31.597 7.721 31.597 29.972 0 7.62-2.134 15.443-5.69 16.357-1.016.305-2.032-.406-2.032-2.032v-34.849l-9.55-1.32-.813 5.181c-2.235-4.267-8.534-7.823-14.122-7.823-14.427 0-25.908 10.668-25.908 25.298 0 14.732 11.38 24.994 26.01 24.994 4.368 0 12.395-2.743 14.63-8.941 0 7.722 6.299 9.652 10.261 9.652 11.887 0 18.593-10.363 18.593-26.517 0-26.924-18.694-40.132-42.976-40.132-21.946 0-42.672 14.224-42.672 40.944 0 28.042 21.132 39.929 41.859 39.929 5.892 0 12.496-1.016 19.405-5.08l-4.673-8.84c-5.182 3.15-10.364 3.557-14.427 3.557-14.834 0-30.683-7.519-30.683-29.566 0-20.116 15.849-30.784 31.19-30.784zm-.305 16.256c9.448 0 13.919 6.299 13.919 13.919 0 8.026-4.775 14.732-14.02 14.732-9.551 0-14.225-7.01-14.225-14.224s4.877-14.427 14.326-14.427zM847.392 203.529v-26.822c0-6.604 4.166-12.395 10.871-12.395 6.706 0 9.449 5.588 9.449 12.192v27.025h12.395v-27.025c0-15.037-7.01-23.775-21.234-23.775-6.502 0-12.294 2.032-16.764 9.144-2.845-6.908-8.84-9.347-14.833-9.347-4.776 0-10.567 1.829-13.208 6.909l-.915-6.096h-11.48v50.19h12.395v-26.822c0-6.604 3.962-12.599 10.668-12.599 6.807 0 10.261 5.995 10.261 12.599v26.822zM918.877 192.76c-8.433 0-14.224-6.401-14.224-14.224 0-7.824 5.283-14.224 14.224-14.224 8.94 0 14.224 6.4 14.224 14.224 0 7.823-5.792 14.223-14.224 14.223zm-15.342 84.606v-79.73c3.556 5.487 11.38 7.112 16.662 7.112 16.053 0 25.299-11.582 25.299-26.212 0-14.732-10.262-26.213-25.705-26.213-5.69 0-12.395 2.438-16.256 8.026l-.813-6.908H891.14v123.925z"
        fill="#000" />
    <path
        d="M551.236 237.755v19.975h14.04v-3.481h-10.273v-16.494zM579.3 245.602c-.798-1.398-2.596-2.283-4.48-2.283-4.109-.028-7.333 2.512-7.333 7.363 0 4.936 3.082 7.505 7.248 7.476 1.57-.028 3.767-.827 4.566-2.482l.17 2.054h3.283v-14.068h-3.34zm-4.166.828c5.48 0 5.48 8.532 0 8.532-2.311 0-4.166-1.598-4.166-4.28 0-2.683 1.855-4.252 4.166-4.252zM601.174 253.65c-.856.856-1.97 1.17-3.082 1.17-2.169 0-3.995-1.427-3.995-4.11 0-2.454 1.712-4.166 4.052-4.166.97 0 1.997.37 2.825 1.113l2.197-2.312c-1.54-1.512-3.082-2.083-5.08-2.083-4.08 0-7.476 2.454-7.476 7.448s3.396 7.448 7.477 7.448c2.083 0 3.795-.628 5.422-2.226zM611.941 243.376c-4.48 0-7.276 3.31-7.276 7.334 0 4.052 2.739 7.334 7.305 7.334s7.334-3.282 7.334-7.334c0-4.023-2.883-7.334-7.363-7.334zm.029 3.168c2.34 0 3.824 2.055 3.824 4.166 0 2.14-1.285 4.138-3.824 4.138-2.54 0-3.824-1.998-3.824-4.138 0-2.111 1.313-4.166 3.824-4.166zM635.547 257.73v-7.39c0-4.424-2.654-6.906-5.964-6.906-1.77 0-3.196.713-4.623 2.111l-.228-1.912h-3.11v14.097h3.452v-7.191c0-2.14 1.455-3.938 3.596-3.938 2.225 0 3.395 1.627 3.395 3.767v7.362zM643.162 257.73v-10.815h4.137v-3.053h-4.137v-.942c0-1.712.913-2.511 2.111-2.511.714 0 1.399.257 2.14.742l1.285-2.597c-1.142-.742-2.426-1.142-3.653-1.142-2.825 0-5.365 1.741-5.365 5.508v.942h-2.625v3.053h2.625v10.815zM663.974 251.937h-10.986c.228 1.741 1.74 2.997 4.195 2.997 1.284 0 2.967-.486 3.766-1.313l2.226 2.197c-1.484 1.541-3.91 2.283-6.05 2.283-4.85 0-7.733-2.996-7.733-7.505 0-4.28 2.911-7.362 7.477-7.362 4.708 0 7.647 2.91 7.105 8.703zm-10.93-2.882h7.592c-.229-1.826-1.656-2.74-3.653-2.74-1.883 0-3.424.914-3.938 2.74zm7.934-11.728h-4.11l-2.11 3.88v.172h3.081l3.139-3.91zM666.685 243.662v14.068h3.481v-7.42c0-2.596 1.684-3.566 3.51-3.566 1.142 0 1.798.314 2.511.913l1.57-3.025c-.77-.77-2.169-1.341-3.624-1.341-1.427 0-2.882.257-3.967 1.997l-.257-1.626zM693.012 251.937c.542-5.793-2.397-8.703-7.105-8.703-4.566 0-7.477 3.082-7.477 7.362 0 4.509 2.882 7.505 7.733 7.505 2.14 0 4.566-.742 6.05-2.283l-2.226-2.197c-.799.827-2.482 1.313-3.767 1.313-2.454 0-3.966-1.256-4.194-2.997zm-10.93-2.882c.514-1.826 2.055-2.74 3.939-2.74 1.997 0 3.424.914 3.652 2.74zM709.563 257.73v-7.39c0-4.424-2.654-6.906-5.964-6.906-1.77 0-3.196.713-4.623 2.111l-.229-1.912h-3.11v14.097h3.453v-7.191c0-2.14 1.455-3.938 3.595-3.938 2.226 0 3.396 1.627 3.396 3.767v7.362zM722.285 253.65c-.856.856-1.969 1.17-3.082 1.17-2.168 0-3.995-1.427-3.995-4.11 0-2.454 1.713-4.166 4.052-4.166.97 0 1.998.37 2.826 1.113l2.197-2.312c-1.541-1.512-3.082-2.083-5.08-2.083-4.08 0-7.476 2.454-7.476 7.448s3.396 7.448 7.476 7.448c2.084 0 3.796-.628 5.422-2.226zM740.665 251.937c.542-5.793-2.397-8.703-7.105-8.703-4.566 0-7.477 3.082-7.477 7.362 0 4.509 2.882 7.505 7.734 7.505 2.14 0 4.565-.742 6.05-2.283l-2.227-2.197c-.799.827-2.482 1.313-3.766 1.313-2.454 0-3.967-1.256-4.195-2.997zm-10.93-2.882c.515-1.826 2.056-2.74 3.939-2.74 1.997 0 3.424.914 3.653 2.74zM760.16 245.602c-.799-1.398-2.597-2.283-4.48-2.283-4.11-.028-7.334 2.512-7.334 7.363 0 4.936 3.082 7.505 7.248 7.476 1.57-.028 3.767-.827 4.566-2.482l.171 2.054h3.282v-14.068h-3.339zm-4.166.828c5.479 0 5.479 8.532 0 8.532-2.312 0-4.167-1.598-4.167-4.28 0-2.683 1.855-4.252 4.167-4.252zm-4.024-8.79l3.14 3.91h3.081v-.171l-2.112-3.881h-4.109zM772.302 237.783v19.947h3.453v-19.947zM778.966 237.783v7.648h3.167v-7.648zM794.6 237.355c-6.907 0-10.274 5.28-10.274 10.53 0 5.25 3.253 10.302 10.273 10.302s10.188-5.165 10.245-10.33c.057-5.222-3.368-10.502-10.245-10.502zm0 3.425c4.708 0 6.591 3.766 6.534 7.134-.057 3.281-1.826 6.82-6.535 6.82-4.708 0-6.478-3.51-6.563-6.792-.086-3.367 1.855-7.162 6.563-7.162zM807.445 243.662v7.39c0 4.367 2.454 6.906 5.821 6.906 1.97 0 3.31-.684 4.766-2.111l.228 1.912h3.11v-14.097h-3.452v7.19c0 2.141-1.456 3.939-3.596 3.939-2.226 0-3.396-1.627-3.396-3.767v-7.362zM838.424 251.937c.542-5.793-2.397-8.703-7.105-8.703-4.566 0-7.477 3.082-7.477 7.362 0 4.509 2.882 7.505 7.733 7.505 2.14 0 4.566-.742 6.05-2.283l-2.226-2.197c-.799.827-2.482 1.313-3.767 1.313-2.454 0-3.966-1.256-4.194-2.997zm-10.93-2.882c.514-1.826 2.055-2.74 3.939-2.74 1.997 0 3.424.914 3.652 2.74zM852.264 245.117c-1.627-1.427-3.282-1.855-5.48-1.855-2.568 0-5.935 1.142-5.935 4.395 0 3.196 3.168 4.166 5.822 4.366 1.997.114 2.796.514 2.796 1.484 0 1.027-1.227 1.712-2.54 1.683-1.57-.028-3.852-.856-4.85-1.969l-1.713 2.483c2.055 2.14 4.28 2.511 6.506 2.511 4.024 0 6.05-2.14 6.05-4.623 0-3.738-3.367-4.337-6.021-4.508-1.798-.114-2.625-.628-2.625-1.541 0-.885.913-1.399 2.568-1.399 1.341 0 2.482.314 3.481 1.256zM856.55 240.066v3.624h-2.625v2.997h2.626v6.078c0 3.51 1.997 5.25 5.05 5.136a7.777 7.777 0 002.883-.599l-.97-2.968c-.514.257-1.142.428-1.684.428-1.084 0-1.826-.656-1.826-1.997v-6.078h3.91v-2.997h-3.882v-3.995z"
        fill="#4d4d4d" />
</svg>