<svg viewBox="0 0 280.459 280.459" width="30" height="30" xmlns="http://www.w3.org/2000/svg">
    <path
        d="M108.22 278.099c-30.64-6.482-49.497-17.088-71.417-40.423C13.468 212.927 1.565 186.293.15 155.652-1.145 127.839 5.808 112.4 24.9 99.908c10.37-6.717 16.617-8.367 29.462-7.896 9.428.354 11.903.943 18.857 4.36 17.913 8.84 32.88 28.874 39.244 52.68 2.121 8.014 2.003 26.634-.236 41.13-2.475 15.674-1.768 36.298 1.65 45.726 5.068 14.142 18.503 29.934 31.938 37.595 12.846 7.306 13.317 6.953-8.132 6.953-14.142-.236-22.156-.825-29.463-2.357z"
        fill="#e1e04e" />
    <path
        d="M169.739 268.435c-8.25-1.65-16.735-6.953-26.4-16.499-11.313-11.196-13.316-16.617-13.198-35.355.117-10.253.589-13.789 3.064-20.27 4.714-12.61 10.135-20.625 21.566-32.174 12.14-12.139 17.325-15.085 40.541-22.863 8.014-2.71 17.56-6.364 21.331-8.25 22.746-11.431 37.713-36.18 37.713-62.107 0-12.257 2.71-10.725 11.078 6.128 11.431 23.217 16.38 43.016 16.38 65.997 0 15.792-2.003 26.87-7.66 42.78-12.61 35.826-34.294 61.636-63.993 76.367-14.613 7.189-26.516 9.075-40.422 6.246z"
        fill="#dd7927" />
    <path
        d="M161.96 116.525c-15.438-2.475-25.338-7.542-46.55-24.16-20.389-15.91-28.874-19.445-47.141-20.27-15.32-.707-23.453 1.179-38.066 8.721-5.775 2.947-10.724 5.068-11.078 4.714-1.179-1.178 4.832-12.728 13.2-25.338 9.192-13.906 25.69-31.23 36.769-38.655 13.67-9.192 27.813-15.085 47.612-19.68 10.724-2.476 52.208-2.476 61.754 0 34.53 8.956 58.218 30.64 60.34 55.39.942 10.96-1.18 24.394-5.186 31.583-6.128 11.314-21.213 22.628-35.12 26.399-7.896 1.768-27.695 2.593-36.534 1.296z"
        fill="#8e3089" />
</svg>